<svg id="Layer_1" data-name="Layer 1" xmlns="http://www.w3.org/2000/svg" viewBox="0 0 800 800"><defs><style>.cls-1,.cls-2,.cls-3{fill:none;stroke-miterlimit:10;}.cls-1{stroke:blue;stroke-width:4px;}.cls-2{stroke:#000;}.cls-3{stroke:#f0f;stroke-width:5px;}</style></defs><title>Artboard 1</title><path class="cls-1" d="M458.5,582.5c89-25,93-199,93-199l-20-153c-40-77-144-51-144-51-39-4-83-20-83-20-71,6-70,81-70,81v30l-7,12-7,101s9,124,78,192"/><path class="cls-2" d="M556.5,379.5l10-44s7-12,9,11c0,0,1,58-9,98,0,0-14,15-19,14"/><path class="cls-2" d="M208.5,338.5s-19-12-11,19l11,74s-10,8,7,27c0,0,12,6,15,0"/><path class="cls-3" d="M203.5,327.5l-8-14s-17-95,0-131,32-69,40-69,72-52,74-59,122-6,122-6,59,17,90,53,56,76,54,102,9,100,0,116S558.43,371,558.43,371L547.5,332.37l-9-83.87-25-54-59-23-61-1-10,8.55-34-19.55-43-8-51,13-25,54v64l-10,88.5Z"/><path class="cls-1" d="M331,481s36-15,36-17c0,0,14,14,36,0,0,0,26,12,38,14,0,0-74,5-94,3"/><path class="cls-1" d="M276,336s37-34,70,0H335S314,349,276,336Z"/><path class="cls-1" d="M419,336s42-35,67,0c0,0-39,13-55,0Z"/><path class="cls-1" d="M298,327s-3,9,13,12,11-12,11-12"/><path class="cls-1" d="M441,327s8,15,15,12,15-10,11-14"/><path class="cls-2" d="M249.5,312.5s15-38,27-36c0,0,34,4,40,4s24,3,21,6-14,9-18,8-12,1-26,0-28,9-31,13"/><path class="cls-2" d="M414.5,289.5s12-16,46-13l27-4,28,26,2,18-25-20-27-2h-35"/><path class="cls-2" d="M354.5,417.5s2-7,18,6c0,0,12,11,22,0,0,0,8-9,25-8"/><path class="cls-2" d="M359.5,428.5c-40,4-15-33-15-33"/><path class="cls-2" d="M414.5,428.5s37-3,5-39"/><path class="cls-2" d="M359.5,528.5s27-22,60,0"/><line class="cls-2" x1="385.5" y1="355.5" x2="389.5" y2="358.5"/><path class="cls-2" d="M565.5,374.5s14,35-4,44"/><path class="cls-2" d="M555.5,412.5s7,13,3,21"/><path class="cls-2" d="M340.5,577.5s68,16,107-7"/></svg>
