<svg xmlns="http://www.w3.org/2000/svg" viewBox="0 0 2893.66 1469.33"><defs><style>path{fill:#fff;}</style></defs><path d="M1794.92 1042.9c13.31 4 25.54 7.06 38.94 4.44 5.26-10.9 7.25-22.88 8-35.19 1-16.29 5.25-31.07 16.88-43.6 6.4-6.89 12.24-14.45 16.45-23.48 3.33-7.15 10.37-13 16.8-18.16 11.92-9.54 24.49-18.3 37-27.1 12-8.41 24-16.76 36.29-24.6 15.85-10.07 33.36-14.28 52.17-14 10.26.13 20.56-.69 30.8-1.56 21.25-1.81 42.48-3.67 63.81-1.38 25 2.68 30.52 3.29 52.61 18 9.38 6.22 19.75 11 29.82 16.09 18 9.15 32 23 43.09 39.19 8.22 12 18.32 21.47 29.18 30.65 6.56 5.55 12.43 11.94 18.52 18a8.82 8.82 0 0 1 1.85 3.49c7.6 23.39 15.2 46.78 17.5 71.46 1.48 15.94 1.5 15.82 16.13 22 9.74 4.15 19.3 8.71 29.25 13.23 4.26-4.93 8.64-11.22 14.22-16.14 9-7.92 18.63-15 28.17-22.29 10.31-7.81 20.82-15.36 31.23-23a178.46 178.46 0 0 1 74.37-32.31c33.56-6.25 67.21-9.4 101.29-6a35.68 35.68 0 0 1 6.87 1c17.88 5.44 35.39 11.81 50.89 22.57 2.89 2 6.19 4.75 7.21 7.84 1.94 5.91 5.72 9.42 10.66 12.55 4.76 3 9.06 6.74 13.68 10 6.56 4.63 10 10.85 12.17 18.66 2.52 8.87 7.27 17.09 10.72 25.72 4.72 11.8 8.62 23.82 7.26 36.85-.1 1 .27 2.1-.06 3-5.28 14.24-.47 28 1.37 42 1.63 12.5 1.26 25.25 1.94 37.88.76 14.08-1.94 27.55-5.06 41.24-2.4 10.53-.55 22-2.25 32.75-2.74 17.39-2.82 34.63-2.64 52.22.25 23.77-14 40.94-34.78 50.78a185.37 185.37 0 0 1-88.11 18c-10.62-.45-21.26-.49-31.89-.66-23.82-.37-46.91-5.12-69.56-12-14-4.27-27.9-8.87-41.5-14.21-36.74-14.42-68.84-36.23-97.05-63.63-14.92-14.49-25.9-32.12-35.32-50.52-3.57-7-7.85-10.63-15.55-11.81-10.49-1.62-20.84-4.21-31.2-6.58-5.29-1.21-9-.72-12.84 4.32-3.68 4.88-9.11 8.9-14.53 12-26.17 14.77-53.35 27.57-83 33.44a668.61 668.61 0 0 1-68.09 10c-25.5 2.36-51.18 3.19-76.81 3.75-25.34.55-49.44-4.53-71.79-17.53-11.17-6.49-23.41-11.17-35.25-16.5-12.49-5.63-22.28-14.79-30.35-25.34-4.7-6.14-6.79-14.27-10-21.51-4.08-9.08-7.88-18.3-12.28-27.23-5.06-10.27-8-21-9.83-32.29-2.46-14.74-6.11-29.29-8.49-44-1-6.45-.73-13.25-.13-19.81 1.17-12.65.26-25.11-1.49-37.35l-36-3c.39 6.73.69 14.17 1.27 21.59 2.19 28.1 1.61 55.88-9.25 82.49-4.38 10.71-9.58 21.11-13.43 32-3.77 10.64-10.81 18.29-19.66 24.46-6.25 4.36-13.36 7.5-19.58 11.92-8.66 6.15-17.76 12.1-25 19.7-19.31 20.16-42.86 31.53-70 35-32 4-63.84 9.28-96.34 8.49-20.61-.51-41.27 1-61.91 1.64a61.94 61.94 0 0 1-31.64-7.65c-31.35-16.87-63.57-32.35-91.37-55.09-6.94-5.67-13.43-11.89-20-18-4.17-3.83-8.06-8-12.28-11.73-6.48-5.79-11.56-12-14.95-20.54-5.89-14.77-13.59-28.83-20.8-43.05-5.66-11.15-8.45-22.76-9.56-35.3-1.72-19.32 1.9-37.61 6.68-56 3.15-12.09 4.59-24.65 8.18-36.58 3.49-11.57 5.71-23.58 12-34.38 5.77-10 10.07-20.82 14.85-31.35a26 26 0 0 0 1.66-6.7c3.12-19.65 10.89-37.69 19.95-55.13 6-11.57 16.53-19.12 27.61-25.21 5.3-2.91 12.29-2.57 18-4.89a213.55 213.55 0 0 1 65.78-14.93c20.91-1.44 41.88-3.12 62.6-6.18 24.14-3.56 47.64-.78 71.1 4.06 15.89 3.28 31.76 6.79 47.44 10.94 6.9 1.82 13.16 6 20 8.17 10.72 3.44 21.74 5.94 32.54 9.14 17.13 5.06 30.41 15.79 41.94 29 5.66 6.51 12.26 12.32 17.21 19.31 8.27 11.67 15.76 23.89 23.16 36.14 5 8.24 9.89 16.65 13.64 25.49 2.66 6.28 3.94 13.32 4.78 20.14 1.73 14.2 2.77 28.44 4.09 42.69zm-31.13 116.47c2.55-7.87 6.63-15.61 7.33-23.64 1.43-16.51 1.41-33.17 1.26-49.76-.06-7.82-1.79-15.63-2.73-23.13-5.81-1.42-10.57-3-15.45-3.7-7.18-1-14.91-3.31-21.56-1.65-10.76 2.67-21.06 1.84-31.61.72-3.29-.35-6.55-1.18-9.85-1.35-4.47-.24-9-.06-14.23-.06 1.48 15.36-1.15 29-8.38 41.37-4.86 8.31-10.07 16.61-16.32 23.88-9.92 11.52-19.37 23.33-32.51 32.08-12.9 8.6-26.91 14.42-40.68 20.95-5.06 2.4-10.69 3.76-16.19 5-20.44 4.63-41.17 1.08-61.76 1.82a11.63 11.63 0 0 1-5.69-1.71c-9.19-5.16-19.57-6.09-29.5-8.68-13.18-3.45-26.46-6.88-37.49-15.7-12.83-10.27-25.19-20.77-29.82-37.62-1.13-4.11-3.85-7.76-5.45-11.77-1.84-4.62-3.82-9.3-4.78-14.15-5.34-27.06-1.39-52.91 10.44-77.77a182.35 182.35 0 0 0 8.52-22.33 14.78 14.78 0 0 0-.38-8.57c-4.72-14.21-16.54-24.6-21.22-38.91-.27-.84-1.34-1.43-2-2.15-3.44-3.55-6.84-7.12-10.3-10.64-4.55-4.62-9.13-9.2-14-14.08-1.26 2-2.1 3-2.66 4.23-7.28 15.3-14.58 30.58-21.74 45.92-4.92 10.55-10.14 21-14.33 31.84-9 23.37-13.38 48-17.84 72.5-1.6 8.81-2.07 17.83-2.91 26.76-.22 2.31-.49 4.9.3 7 5 12.94 7.33 26.66 12.81 39.6a194.06 194.06 0 0 0 30.28 49.78c13.32 15.94 28.89 28.73 46 39.41 22.53 14.09 46.29 26.26 69.79 38.74a42.08 42.08 0 0 0 17.17 4.62c14.26.7 28.57.58 42.85.3 19.31-.39 38.67-.51 57.9-2 24.88-2 49.5-6.26 73.21-14.27 13.18-4.45 26.14-9.74 37.17-18.74 7.71-6.29 15.54-12.45 23.53-18.38 8.82-6.54 18-12.65 26.83-19.14 12.41-9.1 17.82-22.27 22-37-13.43-.88-25.71-2.2-38-2.34s-24.65.64-36.93 1.54c-17.59 1.28-35.15 3.08-52.73 4.52-2.34.2-4.74-.42-7.76-.73 3-6.24 7.75-6.69 12.41-7.1 19.54-1.68 39.08-3.26 58.62-5 19-1.65 37.82-1.91 56.57 2.19 4.08.89 8.68 1.87 11.81-2.59zm317.77-285.78c-19.75.88-38.69 1.74-57.63 2.56-4.25.18-8 1.1-9.28 5.87-1.12 4.31.08 7.84 4 10.34 15.44 9.9 24.6 25 33.14 40.53 10 18.24 15.26 37.24 11.25 58.51a45.12 45.12 0 0 1-11.09 22.84c-13.86 15.26-27.8 30.45-42 45.41-10.9 11.52-16 25.88-20.46 40.51-1.08 3.52-.45 8 .66 11.67a91.82 91.82 0 0 0 18 32.94c11.11 13.17 24.63 19.64 41.78 19.33 22-.39 41.72-7.6 60.2-18.85 10.77-6.55 17.4-16.27 20.3-28.48 3.85-16.22 2.32-32.37-.62-48.53-1.73-9.44-4.67-19.06-4.13-28.43 1.39-24.42 12.66-35.53 35.3-42.44a368 368 0 0 1 47.63-10.69c10.23-1.69 15.39-8.6 17.46-17.92 1.79-8 1.09-16.24-3.64-23.11-4.87-7.07-9.8-14.72-16.48-19.78-14.81-11.23-30.49-21.38-46.29-31.19-7.84-4.87-17-7.53-25.09-12.09-9.4-5.3-19.52-7.73-29.93-8.84-7.85-.83-15.9-.16-23.08-.16zm150.28 364.81c-11-5.23-22.35-3.88-30.2-13.62 13.68-3.25 24 4.5 35.65 5.58 6.48-8.53 13-16.93 19.32-25.47s15.18-15.41 20.12-26.7l-88.21-18.53a38.53 38.53 0 0 0-1.94 4.57c-4.48 14.7-14.39 24.38-28 30.71-3.92 1.82-7.84 3.71-11.58 5.88-22.9 13.27-48.47 18.32-73.94 23.11-10.35 2-21.26 1.5-31.88 1.2a49.64 49.64 0 0 1-17.44-3.7c-16.18-6.83-33.24-11.32-48.39-20.91s-28.63-19.8-38-35.52c-14.52-24.44-19-50.06-12.09-77.65a55.72 55.72 0 0 0 .79-6.2c-23.89-5.36-47.42-10.46-71.61-13-2.37 8.36-1.75 15.51-.73 23.26 2 15.06 1.91 30.4 2.27 45.63a29.23 29.23 0 0 0 3.94 14.08c2.31 4.21 3.1 9.3 4.29 14.07s1.24 10 3.15 14.44c7.33 17 14.8 34.06 23 50.69 5.67 11.47 13.93 21.64 25.9 26.68 19.25 8.11 39.09 14.84 58.7 22.09a28 28 0 0 0 5.83 1.32c19.45 2.79 39 3.27 58.62 2.65 38-1.2 75.59-6.71 112.89-13.66 23.91-4.47 46.33-14.08 68.49-24 3.48-1.48 6.49-4.04 11.05-7zM1637 876.09c-5.65-2.68-10.4-4.84-15.07-7.17-4.36-2.18-8.4-5.59-13-6.65-28-6.39-56.41-10-85-9.22-28.24.79-56.49 3-84.6 6-12.4 1.3-24.52 5.7-36.63 9.2-2.38.69-4.41 3.45-6 5.69-1.3 1.82-1.46 4.42-2.58 6.42-3.71 6.6-1.91 12 3.06 17 5.58 5.72 10.72 11.87 16.38 17.51 3.51 3.5 7.22 7.18 11.55 9.41 16.91 8.72 28 23.17 38.14 38.36 3 4.48 4.62 10.47 5.11 15.93 1.19 13-1 25.85-5.15 38.31-3.72 11-7.17 22.09-10.84 33.12-2.23 6.71-1.94 13.4-1 20 7.94-2.15 15.19-4.34 22.56-6 14.23-3.29 28.4-7.3 42.84-9.2 28.68-3.75 57.52-6.25 86.29-9.35 1.52-.17 3-1 4.78-1.71-2.21-5-4.24-9.56-6.24-14.12-8.14-18.6-16.88-37.08-11.06-59.42-3.77 0-6.7-.16-9.61 0-12.3.79-24.61 1.47-36.87 2.66a17.32 17.32 0 0 1-13-3.45c3.9-4.41 8.4-7.08 14-7.37 15-.76 29.91-1.75 44.87-1.92 4.9 0 7.89-1 10.61-5.27 7-10.91 14.75-21.37 21.88-32.21 5.11-7.78 10-15.7 14.44-23.9 4.14-7.74 4.66-15.85.14-22.65zm1063.29 310.28c-.29-3.65-.46-7.32-.89-10.95q-2.22-18.75-4.59-37.48c-1.11-8.87-1.87-17.8-3.5-26.58-2.2-11.82-10.39-18.06-21.49-21.09-13.37-3.65-25.5 1.35-37.88 5.17-8.79 2.71-12.07 10.71-17.15 16.9-6.1 7.45-11.24 15.69-17.43 23.06-8 9.55-17.85 16.93-30.64 18.52a127.42 127.42 0 0 1-42.6-1.93c-5.79-1.24-11.69-2.55-17.55-2.59-5.54 0-11.08 2-16.65 2.27-5.9.24-9.22 5.06-14 7.25-4.16 1.92-8.24 8.46-8.54 13.2a112.62 112.62 0 0 1-2.13 16.47 214.83 214.83 0 0 0-2.9 21.65c-1 9.16 2.72 15.5 10.59 20.8 18.1 12.22 38 13.58 58.47 10.67 13.11-1.86 26.62-2.19 38.57-10.2 8.84-5.92 19.21-7.28 28.6.35a51.89 51.89 0 0 1 7.19 6.78c4.26 5.11 8.33 10.39 12.26 15.76 8.43 11.55 18.59 20.67 32.79 24.49 6.65 1.79 15 2.68 18.92-1.74 9.35-10.57 16.63-23 24.74-34.62.17-.24.06-.66.17-1 6.42-17.91 7.13-36.42 5.67-55.16zm-362.77 73.75c4.85 15.43 10.25 28.11 20.62 38.07 1.87 1.79 4.4 2.89 6.58 4.37 11.27 7.61 23.56 14.12 33.44 23.24 6.61 6.1 13.41 11.79 20.95 16.13 10.59 6.11 21.71 11.9 33.33 15.45 14.85 4.54 30.38 6.94 45.7 9.85 14.36 2.72 28.75 6.07 43.28 7.06 29.8 2 59.7 4.72 89.44-1.67 14.21-3 28.24-5.42 41-13.88 8.74-5.83 11.42-13.62 15.76-24.09-5.15 2.09-8.16 3.14-11 4.5-9.9 4.67-20.32 6.73-31.08 4.9-19.5-3.31-38.76-7.42-51-25.45-2.81-4.12-6.08-7.91-9-11.95-6.08-8.42-7.75-8.64-17.33-5.2s-19.46 7.17-29.51 8.86c-9.7 1.62-20.23 2.72-29.64.65-16.15-3.57-31.94-9.17-47.42-15.13-9.8-3.77-19.71-8-27.09-16.35-14.38-16.23-23.34-35.51-30.6-55.52-2.32-6.4-5.31-10-11.6-11.9-14.56-4.37-29-9.16-43.53-13.66-5.29-1.64-10.69-2.93-16.49-4.51-3.37 12.51-6.43 24.24-5.47 36.16 1.05 13 3.56 26 19.49 29.75 2.34.56 4.44 2.13 6.65 3.23-.12.32-.23.65-.35 1zm313.64-221.21c-.33-4.5-3.36-7.26-7.5-9.11-13.33-5.92-26.46-12.4-40.11-17.45a80.94 80.94 0 0 0-24.37-4.57c-24.71-1-48.93 3-73.09 7.88a184.5 184.5 0 0 0-65 26.58c-9.64 6.31-19.57 11.92-27.54 20.78-5.63 6.28-13.84 10.16-20.33 15.78-7.17 6.21-14.67 12.33-19.22 21.29 14.68 11.4 30.83 18.45 48 24.32 13.09-17.7 31.33-25.86 51.55-30.6 9.82-2.3 19.51-3.36 29.49-.1 6.56 2.14 13.59 4.32 20.33 4.13 15.86-.47 30.14-6.54 39.76-19.31 13.51-17.93 30.65-29.11 52.55-33.22 11.68-2.19 23.38-4.22 35.51-6.4zm-723.11 34.2c9.83-17.8 21-32.84 34.6-45.58a347.43 347.43 0 0 0 34.44-37.35c4.53-5.72 6.58-11.89 7.39-19.15 1.24-11.06-2.84-19.92-8.38-28.95-6.56-10.68-16.4-19-21.41-30.78-.7-1.65-3.69-3.14-5.7-3.25-4.58-.25-9.74-.81-13.71.92a131.6 131.6 0 0 0-23.4 13.11c-8.64 6.11-16.59 13.23-24.57 20.23-3.9 3.42-8.41 7-10.36 11.52a23.92 23.92 0 0 1-7.69 10c-17.43 13.51-26.42 31.74-29.71 53.15-.3 2-1 4.31-.23 5.92 2.42 5.34.5 10.45-.73 15.32-2.07 8.24-4.33 16.14 2.21 23zM1682.57 967c-6 4.57-12.77 5-19.75 4.1-5.49-.7-8.44 1.72-10.58 6.74-3 7-1.61 13 2.52 18.74 8.77 12.27 15.94 25.27 18.87 40.29a3.66 3.66 0 0 0 1.19 1.66c9.54.8 18.41 1.37 27.24 2.33a94.2 94.2 0 0 0 24.65-.09c11.7-1.74 23.87-2.65 35.37 2.53 1.54.69 3.66.09 5.71.09 0-8.09.5-15.71-.15-23.23s-3.09-15-3.58-22.55c-.92-14.1-7.27-26.09-14.11-37.72-4.85-8.23-11.81-15.16-14.61-24.7-.72-2.44-2.56-4.7-4.3-6.68-7.9-9-15.85-17.87-24-26.61-3-3.23-6.69-5.48-11-3.23-1.69 7.87-3.62 15.25-4.77 22.74-.8 5.23-3.08 9.11-6.67 12.92-7.9 8.39-15.27 17.28-23.69 26.92zM2278 1172.67c3.86-5.73 4.59-11.54 4.77-17.59.36-12.63 1-25.25 1.32-37.88a101.81 101.81 0 0 0-.6-12c-.87-9.59-2.31-19.16-2.64-28.77-.18-5.33-2.13-7.82-7.07-9.12-21.55-5.66-43-11.62-64.59-17.23-9.05-2.36-9.53-1.87-12.86 7.18a68.45 68.45 0 0 0-1.14 44.13 69.45 69.45 0 0 1 .6 38.4c-1.07 4-2.62 7.92-4.13 12.38zM1635 1060c-.67 17.9-10.3 30.26-22.13 41.47-13.63 12.92-29.27 22.91-45.61 32-17.9 9.94-36.72 13.74-56.77 8.43a204.11 204.11 0 0 1-25.61-8.33c-11.74-4.84-25-7.67-31.62-20.54-.28-.54-1-.87-1.53-1.26-7.23-5.34-11.14-13-14.55-21-1.43-3.36-2.34-7-3.91-10.26-4.59-9.66-5-20.12-3.82-30.17a110.49 110.49 0 0 1 7.78-28.85c4.08-9.95 6.49-20.19 9.21-30.48 3.24-12.23 0-22.34-8.51-30.83-7-7.05-14.76-13.45-22.33-20-6.81-5.85-14.61-10.76-20.56-17.37-7.94-8.82-14.51-18.88-21.71-28.37a13.56 13.56 0 0 0-2.55-1.95l-7.31 4.4c1.94 2.93 3.15 5.78 5.22 7.71 9.34 8.74 19.17 17 28.34 25.88 8.8 8.54 17.32 17.42 25.36 26.68 5.58 6.42 7.86 14.55 8.64 23 1.14 12.37-2.44 24-7.18 34.88a152.68 152.68 0 0 0-12.7 52.94c-1.33 22.16 3.78 41.54 16.92 58.94 3.52 4.65 7.78 9.64 12.85 12 12 5.65 24.27 11.22 37 14.29 22.28 5.34 44.93 9.53 68.16 7.09a110.32 110.32 0 0 0 35.29-10.11c26.08-12.12 44.6-32.43 59.83-55.84 6.77-10.4 11.56-22.31 10.13-36.52zm539.51-18.74l-21.72-4.89c-2.73 6.85-1.45 12.63 0 18.38 2.17 8.37 4.91 16.62 6.51 25.1 5.27 28.06-1.5 52.77-21.88 73.21-4.41 4.43-9 9-14.35 12.11-9.11 5.36-18.47 10.76-28.42 14.08a225.19 225.19 0 0 1-38.64 9c-20.49 3-38.46-5.54-55.83-15a24.83 24.83 0 0 1-8.76-8c-10.47-16.4-23.45-31.77-24.42-52.54-.39-8.2-.07-16.43-.07-25.68l-16-1.55c-3.57 13.19-3.43 25.84-2.27 38.31.66 7.07 3.22 14.15 6 20.79s7 12.85 10.41 19.31a64.23 64.23 0 0 0 22.67 24.68c16.11 10.09 34.37 14.3 53 15.82 22.18 1.81 43.58-3.88 64.85-9.45 12.94-3.4 25.49-8 36.56-15.53 6.48-4.42 13.77-9.19 17.58-15.65 5.64-9.57 8.78-20.67 12.5-31.3 3.44-9.85 1.14-19.77-.89-29.57-3.64-17.54-4.08-35 1.05-52.34.82-2.78 1.3-5.69 2.09-9.26zm-722.07 35.38c.2 7.86 2.87 13.84 7.85 18.3a134.43 134.43 0 0 0 18.23 13.82 105 105 0 0 0 19.53 9.74c17 6.15 34 5 50.59-1.62 5.81-2.3 11.24-5.54 16.91-8.2a88.71 88.71 0 0 0 38.79-34.65c2-3.25 3-7.08 5.28-12.67-9.11 1.56-16.17 3.19-23.32 3.89-9.2.89-18.76 2.61-27.62 1a69.91 69.91 0 0 0-19.52-1c-10.58 1-21.17 1.93-31.69 3.35-9.54 1.29-19.18 2.54-28.44 5-8.62 2.4-16.9 5.51-26.62 3.07zm918.72 29.5c-2 2.75-3.59 4.71-4.85 6.89-5.46 9.41-11 18.78-16.14 28.37-5.44 10.17-10.46 20.56-15.58 30.9a5.59 5.59 0 0 0-.17 2.81c.31 3.78.69 7.56 1.12 12.08l65 24.07c-.65-29.15 8.05-55.81 16.08-82.86zm56.63 122.49l-1.93 1.71c5.84 11.74 12.68 22.94 22.59 31.88 10.6 9.57 24.13 13.89 37.13 18.93 25.1 9.73 49.94 10 74.39-2.46 13.4-6.8 24.35-5.32 35.4 5 4.83 4.51 8.82 9.92 13.4 14.71 3.66 3.82 7.08 8.35 11.57 10.79 17.19 9.32 35.21 9 52.92 1.72 7.89-3.25 15.06-8.26 22.54-12.5a23.32 23.32 0 0 0 2.37-1.81v-7.91c-.56 0-1 0-1.21.14-.79.6-1.5 1.29-2.25 1.94-16.39 14.26-34.17 20.31-54.84 9.29-2.35-1.25-4.74-2.42-7.08-3.69-15.59-8.46-26.84-21.65-38-34.94-2.94-3.5-5.85-7-8.6-10.34-6.46 2.86-12.15 4.87-17.35 7.77-11.3 6.3-23.39 9.14-36.19 10.19-29.87 2.45-55.86-5.74-77.47-26.89a23.33 23.33 0 0 0-6.32-4.67c-6.96-3.1-14.06-5.89-21.1-8.83zm-453.86-337.29c14.26 6.33 25.18 14.7 31.64 28.35a234.94 234.94 0 0 0 17.43 31.17c5.93 8.79 7.13 18.91 3.35 29.55-4 11.3-10.65 20.64-19 28.87-16.12 15.87-31.68 32.24-45.17 50.42-3.86 5.21-6.58 11.27-10.57 18.23l20.39 2.85c6.3-17.18 14.28-32 26.77-44.11q9-8.67 17.79-17.51c5.16-5.16 11.31-9.74 15.13-15.78 12.62-19.93 12.9-40.71 1.53-61.42-3.68-6.7-7.85-13.13-12-19.56-2.34-3.63-4.4-7.94-7.75-10.33-10-7.14-13.77-18-18.93-29.15zm701.92 164.42c-4.53 1.74-7.86 3.71-11.4 4.24-6.89 1-13.94 1-20.87 1.85-24.12 3-45.62 11.21-62 30.33-4.47 5.22-10.09 9.58-15.63 13.72-10.09 7.52-22.44 9.56-34.26 12.39a39.26 39.26 0 0 1-18.6 0 93.61 93.61 0 0 0-35.34-3.07c-14.12 1.65-26.18 8.51-35.46 21.37l8.79 5.15c9.77-5.68 17.66-11.2 26.3-15.07 16-7.17 33-6.39 49.93-3.55 8.52 1.42 17 3.18 25.53 4.33 7.69 1 15.84 1.37 21.69-4.59a181.4 181.4 0 0 0 20.54-24.14c6.15-8.94 12.62-17.22 22.45-22 6.84-3.34 14.13-5.74 21.22-8.59 17.85-7.18 34.19-4.79 50.77 9.44-4.28-9.93-8.18-17.18-13.66-21.81zm-367.29 23.39v11.84q.34 26.85.73 53.7a80.17 80.17 0 0 1-5 30.31 25.83 25.83 0 0 0-.72 4.1l10.38 1.88c.88-7.5 2-14.29 2.38-21.12.61-11.28 3.3-21.44 11.67-29.75a73.8 73.8 0 0 0 10.36-13.34c4.13-6.61 8.46-13.26 10.15-21.77zM2252.85 975c-2.85 12.56-10.46 20.31-20.67 25.19-6.2 3-13.12 4.52-19.84 6.23-13.16 3.37-26.46 6.21-39.6 9.66-6.67 1.75-12.59 5-16.66 12.31 6.32 2 11.56 4.07 17 5.17 2.59.52 6.2 0 8.24-1.5 11-8.22 23-12.89 36.94-12.64a34.72 34.72 0 0 0 9.82-1.51c10.86-3 22-5.52 29.73-14.87 7.19-8.73 5.56-20.34-4.96-28.04zm193.6 254.85c-.55-3.34-.67-4.61-1-5.84-2.47-10.07-3.6-20.06-1.38-30.48s3.22-20.92 4.75-31.4c.72-4.94 1.42-9.88 2.24-15.55l-12.5-5.89c-3.15 7.07-7.33 11.79-8 19.52-1 11-5.49 21.72-7.47 32.74-1.27 7.09-1.1 14.52-.76 21.76a9.61 9.61 0 0 0 4.32 6.88c5.82 3.09 12.13 5.18 19.8 8.29zM1629 973.6c-11.14-.33-12.72.25-15 8.12a30.31 30.31 0 0 0-.77 13.64c3.32 16.76 11.58 31.59 19 47.52l18.59-2.7c-.87-11.41-3.91-20.64-10.54-28.68a114 114 0 0 1-9-13.15c-4.53-7.46-8.8-15.08-2.28-24.75zm635.68 263.93l42 9.88c-11.15-37.12-5.32-42.11 1-60-4.13-2.94-7.24-3.16-10.5 1.85-10.26 15.8-21.02 31.32-32.49 48.27zm13.77-174.65l2.52-2.49c-3.24-13.24-6.47-26.48-10.09-41.3-15 14.65-33 20-53.52 25a498.78 498.78 0 0 0 61.1 18.79zm-646.83-108c3.95 1.8 6.25-.41 8.79-3.58 9.08-11.3 18.52-22.32 27.64-33.59a16 16 0 0 0 3.42-7.09c1.33-8.05 2.14-16.18 3.23-24.91l-10.7-1.8c1.28 11-3.14 19.44-8.06 27.84-8.15 13.97-15.94 28.25-24.31 43.11zM680.62 363.63c-.14.6-.6 1.38-.38 1.77 5.3 9.36 4.32 13.1-5.42 15.86a240.4 240.4 0 0 1-30.05 6.7c-8.37 1.25-17.18 2.24-25.41.93-9.06-1.44-15 4.34-21.34 5.67-4-.38-7.54-1.77-10.06-.74-6.61 2.69-12.76 6.49-19.15 9.72a24.29 24.29 0 0 1-6.22 2.3 105.86 105.86 0 0 0-29.75 10.9 88.69 88.69 0 0 1-13.84 5.61c-5.36 1.76-8.47 4.94-8.77 10.72-.18 3.32-1.07 6.65-.9 9.93.78 14.89.07 29.77 3.29 44.64 2.05 9.49 1.36 19.93 0 29.69s-.94 19.15 3.88 27.13c9.13 15.11 12.44 32.11 18 48.37 4.29 12.53 8.62 25.06 12.25 37.78 4.27 14.93 10 29.65 8.95 45.63-.21 3.31-.77 6.59-1 9.9-.34 5.91-.37 11.84-.83 17.74-.6 7.59-1.49 15.17-2.28 22.74-.31 3-1.41 6-.92 8.81a52.52 52.52 0 0 1-1.14 24.67c-.65 2.19-1.56 5-.74 6.81 3.1 6.75.7 13.09-.57 19.55-1.59 8-6 14.45-13.68 17.12a256.59 256.59 0 0 1-32.45 9c-7.81 1.61-14.8 4.17-19.91 10.25a25.3 25.3 0 0 1-20.87 9.4c-3.18 0-7.19-.32-9.32-2.2-4.22-3.73-9-4.06-13.89-4.25a207.44 207.44 0 0 1-45-7.19 11.47 11.47 0 0 0-10.31 1.73 125.31 125.31 0 0 1-11.02 6.68c-12.68 7-25.72 5.15-38.74 1.23a8.24 8.24 0 0 1-4.6-3.46c-3.05-5.74-8.29-7.26-14-8.15-11.45-1.77-22.82-3.47-33.62-8.39-3.82-1.74-5.86-2.86-6.54-7.18-1.74-11-4.61-21.91-6-33-1.07-8.42-5.28-14.85-10.14-21.2a23.33 23.33 0 0 0-2-2.18c-13.16-13.31-16.15-29.87-15.28-47.7.13-2.63.55-5.57-.37-7.89-6.37-16.08-8.1-33.3-12.69-49.81a23.15 23.15 0 0 0-1.95-5.63c-5.53-9.27-1.67-17.68 2.27-26 2.65-5.62 5.59-11.11 8.68-17.21-11.92-4-14.1-14.81-19.08-23.27-1.33-2.26-1.27-6-.55-8.67 1.62-6.08.1-11.48-1-17.43-2-10.33-2.2-21.07-2.18-31.64 0-3.37 3.12-6.73 5.25-11-10.36 2-20 4.75-29.81 5.42-13 .89-25.29 6.33-38.83 4.32-8.82-1.31-17.77 1.61-25.89 5.88-2.66 1.39-5.33 2.76-8 4.15-12.14 6.35-24.19 8.3-37.17 1.57-6.08-3.15-13.28-4.07-19.89-6.28-8.46-2.83-16.83-5.94-24-8.48-2-5.4-3.5-9.34-5-13.24-2.66-6.77-5-13.7-8.17-20.21-5.39-11-3.38-22.78-4.43-34.24-.3-3.27-.65-6.77-2-9.68-5.61-11.94-8-24.55-8.32-37.56a64.25 64.25 0 0 1 1.38-17.54c2-7.68 7.64-12.51 15.23-15.17a11 11 0 0 0 5-4c6.16-9 11.81-18.39 18.22-27.22 2.38-3.28 6-7.06 9.65-7.75 10.14-1.91 15.32-10.23 22.68-15.63 4-2.93 7.25-6.84 10.77-10.36 6.2-6.2 12.55-11.61 22.26-11.44 7.46.12 13.9-4.38 17.94-9.68 5.77-7.56 13.57-9.62 21.85-12l-2.5-4.72 4.91-3.61-4.57-2.07c.17-1 .05-1.92.4-2.17 3.78-2.66 7.67-5.15 11.46-7.81 11.68-8.2 24.65-12.82 38.9-12.79 7.91 0 12.93-5 18.31-9.07 4.87-3.7 9.58-5.17 15.66-6.5 12.34-2.68 26.23-.73 36.92-10.28 2.74-2.45 7.27-2.91 11-4.19 2.5-.85 5.1-1.41 7.59-2.27 8.38-2.91 16.73-5.91 25.1-8.85.61-.21 1.45-.57 1.9-.33 9.85 5.15 18-1 24.68-5.78 9.84-7.1 20.45-6.53 31-6.6a42.85 42.85 0 0 0 20-5c9.43-4.86 18.78-9.88 28.37-14.41 4.41-2.08 9-3.46 14.19-.68a17.72 17.72 0 0 0 10.5 1.84c9.49-1.55 18.82-4 28.23-6 12.94-2.77 25.93-5.37 38.85-8.24 6.74-1.5 13.92-2.36 20-5.39 11.48-5.75 22.65-5.62 34.3-1.58 1.87.65 4 1.78 5.73 1.48C586.18 132.08 595 139.1 604 146c11.28 8.64 22.75 17.06 34.13 25.59 1.28 1 2.87 1.74 3.73 3 2.61 3.83 4.4 8.35 7.51 11.68 2.81 3 6.93 4.83 11.47 7.82 1.19-2.91 3.2-5.74 3.39-8.69 1.11-17.29 10.28-31.16 18.81-45.28a8.7 8.7 0 0 1 5.68-3.51c9.59-1.17 16.54-6.69 22.84-13.23 5.73-5.95 13-8.4 19.9-4.83 11.94 6.19 21.33 1.15 30.47-5 6.24-4.18 12.25-7.23 20-7.76 4.7-.33 9.53-2.93 13.75-5.44 14.51-8.61 30.94-9.71 46.91-12.61 1.52-.28 3.21.42 4.81.71 4.16.75 8.34 1.37 12.45 2.33 5.42 1.26 10.78 2.74 16.14 4.23 1.25.35 2.5 1.78 3.57 1.6 11-1.83 17.25 6.4 25.4 11 10.51 6 20.36 12.5 28 21.89 3.7 4.58 5.67 10.83 10 14.62s10.43 5.25 15.65 8c1.37.71 3.15 2.12 3.32 3.4.86 6.45 5.51 8.87 10.28 12.31 9.41 6.78 18 14.73 26.43 22.8 3.47 3.34 5.62 8.15 8.09 12.45 3.55 6.2 6.83 12.55 10.47 19.28 8.38-8.85 16-16.41 23-24.46a119.77 119.77 0 0 0 10.8-15.42 8.89 8.89 0 0 0 1.14-6.4c-1.79-6.18-.51-11.91 1.66-17.54 5-13 9.48-26.24 22.37-34.21 2.18-1.34 3.5-4.51 4.58-7.1 2.18-5.2 3.31-10.94 6.06-15.78 2-3.51 5.43-7.1 9.08-8.65 15.52-6.61 31-13.55 48.27-14.68a9.42 9.42 0 0 0 4.63-1.28c8.72-6.06 17.23-12.42 26-18.38a33.61 33.61 0 0 1 9.73-4.58c11.09-3.07 22.37-2.73 33.7-1.31 4.26.54 8.66 1.14 12.89.69 12.35-1.33 20.83 3.52 27 14.25 4.77 8.36 10.62 16.11 16.08 24.08a11.47 11.47 0 0 0 3.41 3.52c16.54 9.6 24.91 24 24.74 43-.11 12.57-.5 25.17-1.37 37.71-.26 3.78-2.42 7.48-3.91 11.13-1.35 3.29-3.09 6.41-4.45 9.69-2.69 6.46-5.41 12.9-7.75 19.48a35.09 35.09 0 0 0-1.81 9.54c-.66 10.43-3.38 19-13.8 24.5-6.58 3.46-12.05 9.34-17.41 14.74-4.34 4.38-6.51 10-4.88 16.5 1.47 5.84 0 11.28-2.62 16.39-2.88 5.65-3 11.42-2.06 17.49 1.58 9.86-.65 13.61-9.1 18.64-7.4 4.4-14.51 9.34-21.48 14.42-1.62 1.18-2.55 3.74-3.12 5.85-3.41 12.54-7.34 24.74-15.41 35.31a19.46 19.46 0 0 0-3.33 10.25c-.39 7.56.2 15.16.18 22.75 0 4.57-.92 9.18-.52 13.7 1.12 12.74 5.57 24.24 15.19 33.52l-1.47 1.52-10.51-3.94c1.16 1.82 1.66 3.37 2.73 4.18 10.16 7.69 16 18.07 19.7 30 1 3.39 3.6 6.29 5.39 9.46 2.76 4.87 5.16 10 8.26 14.62 4.6 6.89 9 14 14.69 20 7.3 7.71 11.42 16.51 11.85 26.79.69 16.24 3.11 32.62-.82 48.71-1.64 6.71-4.5 13.18-7.33 19.53-2 4.4-2.6 8.19 1.3 11.7 6.8 6.1 5.72 13.71 3.73 21.23-1 3.82-3.6 7.22-4.57 11-.82 3.25-.61 6.85-.41 10.27.47 7.87-4.15 11.53-10.89 13-12.38 2.66-24.77 4.82-36.59-2.55-3.56-2.21-10.82-.19-14 4.29a36.4 36.4 0 0 0-5.58 12.46c-2.68 11.19-6.9 14.17-18 12.74-19.55-2.51-32.82-14.45-44.15-29.1-4.05-5.23-7.36-9.9-15.2-7.86-13.59 3.53-26.92.56-40.17-2.57-2.55-.6-5.17-1.41-7.74-1.35-10.09.23-18.6-3.24-26.24-9.73a13 13 0 0 0-7.84-2.76 233.82 233.82 0 0 1-70.64-11.24c-3-.94-5.33-3.62-8.1-5.29-13.54-8.14-19.52-21.08-23.2-35.68-1.4-5.57-5.15-10.73.78-16.23 1.13-1-.47-5.48-1.37-8.17-1.63-4.89-3.78-9.61-5.47-14.48a9.71 9.71 0 0 1-.33-4.93c3.65-18.35-5.58-31.79-18.67-41.78-9.22-7-13.76-15-16.69-25.67-4.64-17-4.6-33.94-3.39-51.73-1.37-.46-2.87-1.39-4.37-1.4-6.43-.07-10.07-3.13-13-8.91-2.12-4.15-6.38-7.39-10.12-10.51-8.06-6.72-18.19-11.63-19.57-23.8a102.11 102.11 0 0 1-17-18c-2.5-3.23-10-2.47-15.11-3.87a49.45 49.45 0 0 1-10-3.92c-.75-.39-.41-2.85-.74-5.86l-6.74-4.57 4.14-4.35c-3-6.6-5-13.53-9.08-18.88-3.37-4.43-9.14-7.07-14-10.31-1-.66-3.28 0-3.71-.69-5.17-8.52-16.39-11.51-18.81-23.14-2-9.46-7.51-18.19-11.48-27.24a13.16 13.16 0 0 1-1.25-2.71c-2.72-15.77-15.78-20.58-27.94-27-4.94 8-3.29 15.95-.31 23.24 4.4 10.75 6.62 21.44 4.49 33-.71 3.84.52 8-.07 11.9s-1.44 9.56-3.78 10.51c-7.09 2.87-9.69 9.57-14.71 14.07-2.79-3.31-6-5.69-11.46-3.85 1.43-5.82-4.73-9-2.65-14.95 5.34-15.25 4.66-30-2.88-44.92-4.87-9.64-7.65-20.64-1.79-31.52.59-1.08.59-2.48.94-4.08a35.71 35.71 0 0 1-4.69-3.72c-2.37-2.61-6-5.25-6.41-8.26-1.59-11.05-4.6-21.38-11-30.64a6.94 6.94 0 0 1-.62-2.91c-1.14-9-4.85-11.42-13.54-10.4a375.268 375.268 0 0 1-32.64 2.39c-3.93.11-7 .72-10 3.29-5.8 5-11.81 9.76-17.75 14.59a27 27 0 0 1-20.33 6.25c-12.23-1.17-24.59-1.57-36.69-3.53-15.85-2.56-30.49 1.39-44.08 8.12a119.35 119.35 0 0 1-29.79 10.61c-13.31 2.67-26.68 5-39.9 8-4.05.92-8.55 2.67-11.42 5.48-10.48 10.29-22.25 12.67-35.68 7.44-6.54-2.55-12.92-2.17-19.52-.41-7.67 2-15.37 4.67-23.2 5.34-11.93 1-22.18 6.72-34.45 9.36l4.84 6c-2.35 3.4-4.71 6.08-9.46 6.3a186 186 0 0 0-22.42 2.62c-15.42 2.64-32.13 1.83-43.84 15.27a6.18 6.18 0 0 1-1.74 1c-6 3.42-12.59 6.19-18 10.42-5.6 4.4-11.24 7.75-18.3 8.89-2 .32-3.68 1.93-6.9 3.72l12.31 6.65a13.86 13.86 0 0 0-1.15 1.86c-3.09 7.76-8.23 11.77-17 9.89-1.83-.39-4 .22-5.88.75-10.47 2.9-20.91 5.91-32.61 9.25-1.47 6-4.9 13.15-4.47 20a108.92 108.92 0 0 0 6.48 31.14c4.23 11.25 5.16 22.68 5.22 34.19 0 7.84 3 13.16 8.33 18.22s9.89 11.08 18.68 8.76a7.14 7.14 0 0 1 4.84.65c4.71 2.62 9.44 1.78 14.44 1.17 6.2-.76 12.51-.53 18.77-.87 3.28-.17 7 .2 9.74-1.14 10.44-5 21.06-10 30.67-16.33a59.17 59.17 0 0 1 22.84-9.3 19.85 19.85 0 0 0 8.7-3.64c6.92-5 14.69-5.88 23.5-2.53 15.09 5.75 26.67 14.63 33.25 29.61.79 1.78 2.67 3.09 3.42 4.88 2.82 6.71 6.15 13.34 7.79 20.35 1.16 5-.27 10.53-.21 15.83.2 19 1.29 37.77 10.7 55 1.14 2.09 1.06 5 1.14 7.47.2 5.62 0 11.24.21 16.86.24 7 2.13 14.19.79 20.8-3 14.72-.23 28.31 4.85 41.88 1.28 3.42 2.09 7 3.09 10.55 2.67 9.32 3.72 18.46 2.18 28.41-1.51 9.69-.77 19.92.26 29.78 1.35 12.78 5.24 25.4 5.66 38.16.42 12.51 5 22.83 11.35 33.59 3.47-3 6.58-8.06 10.33-8.59 8.38-1.18 17.71-2.07 25.49.48 12.67 4.15 25.5 4.74 38.3 5 8.15.18 16.35-1.66 24.15 1.66 11-11.79 23.91-16.6 39.44-16.86 13-.22 15.85-5.39 13.29-19.07a13.61 13.61 0 0 1-.23-4c.14-1.26.38-3.22 1.16-3.58 7.58-3.4 4.6-9.82 4.64-15.39s-.79-11.34.37-16.68c2.43-11.27 2-22.85 5.88-34.09 3.32-9.76.1-20-3.46-30-5.35-15-9.23-30.43-14.1-45.57-3.94-12.25-8.94-24.19-12.46-36.55a121.55 121.55 0 0 0-10-24.82c-5.95-11-8.29-22.8-5-35.6a46.91 46.91 0 0 0 .78-19.69c-2.34-12.43-3.42-24.83-4.41-37.42-1-12.95-.14-25.17 3.44-37.33 3.41-11.57 9.52-20.8 22.28-24.31 11.81-3.25 23.33-7.56 35.05-11.12 5.39-1.64 11-2.5 16.47-3.93a118.86 118.86 0 0 0 11.36-3.6c5-1.84 9.89-3.9 14.8-5.93 7.45-3.06 15.29-3.9 23.22-4.34 9.1-.52 18.19-1.2 27.28-1.75 3.86-.24 7.82.12 11.58-.59 6.81-1.3 13.42-3.8 20.26-4.65 5.69-.67 11.69.25 17.6.44zm93.26-168.54c1.15 3.78 2.83 6.63 2.74 9.42-.46 15.1 8.52 20.14 21.63 21.16a14.67 14.67 0 0 1 2 .36c10.84 2.27 18.5 8.2 22.58 18.76a24.34 24.34 0 0 0 5.63 9.09c11.45 10.46 25.06 18.49 34.76 30.95a11 11 0 0 0 3.13 2.47c8.81 5.33 17.44 11 26.56 15.78 7.24 3.77 12.14 8.95 14.92 16.55 5.51 15.07 16.06 25.12 31.61 29 11.94 3 22.43 8 31.34 16.49 2.87 2.74 6.34 4.86 9.54 7.26 6.5 4.86 12.28 10.16 13.84 18.77.4 2.17 1.87 4.28 3.24 6.12 5.18 6.95 10 14.06 12 22.68.72 3.09 2.15 6.54 1.4 9.33-1 3.64-3.8 6.78-6.12 10.61 3 7 8.53 12.95 14.91 18.44 8.5 7.3 12.8 16.12 7.46 27.45-.82 1.74-1.49 4-1 5.79 2 8 3.54 16.34 6.87 23.82a113.88 113.88 0 0 1 9.36 38.44 19.6 19.6 0 0 1-3.37 12 21 21 0 0 0-3.89 10.84 28.75 28.75 0 0 1-2.33 9.65c-2.09 4.18-1 7.42.89 11.2 3.65 7.42 8.46 14.8 9.81 22.71 2.05 12 7.52 22.62 11.18 33.94 2.38 7.33 7.08 11.31 14.34 11.71 11.16.61 22.38 1.07 33.53.59 16.67-.73 29.18 7.06 40.57 17.88 4.34 4.11 8.8 8.09 13.51 12.42 5.12-8.22 10.89-13.45 19.1-15.61a9.93 9.93 0 0 0 4.38-2.29c5.17-5.15 11.7-4.73 17.82-3.76a52.08 52.08 0 0 1 14.85 5.27c7.28 3.67 12.75 2.37 16.17-5.13 1.58-3.47 2.31-7.33 3.36-10.8-14.58-7.05-17.83-13.73-14.5-28.19a35 35 0 0 1 1.79-6.74c5.15-11.22 6.07-22.86 5.08-35.07-1.39-17.2-4-33.66-17.19-46.37-1.44-1.38-3.12-2.68-4.07-4.36-2.6-4.59-7-9.48-6.77-14 .41-7.77-2.79-14.07-4.74-20.89-2.6-9.09-3-19.35-10.93-23.38v-11.87l5-2.21c-6.75-8.13-12.17-16.35-19.26-22.7s-7.69-13.29-6.52-21.54a77.25 77.25 0 0 0 .8-12.62c-.35-15.52-2.38-31.33 9.36-44.32 1-1.15 1.32-3 1.89-4.56 3.32-9 6.6-18 10-27a22.8 22.8 0 0 1 10.69-12.53c5.46-3.05 10.28-7.23 13.79-9.77 2.54-8.95 4.69-16.17 6.63-23.45 1.1-4.12 2.8-8.39 2.56-12.49-.4-6.95 1.4-13 4.11-19.21a65.51 65.51 0 0 1 25.65-29.75c4.17-2.66 6.34-5.49 4.39-10.64s0-9.73 2.87-14.07c6.17-9.36 9.85-19.56 9.92-30.88 0-3.06-.16-5.92 3.21-7.7 1.28-.67 2-2.4 2.9-3.74 6.5-10.11 3.21-21.06 3.49-32.77-9.21 2.73-10-6.88-15.66-9.16-3.08.65-6.28.7-8.88 2-7.74 3.79-15.64 4.65-24.18 3.85-7.08-.66-14.24 1.18-19.28 6.48-5.69 6-12.8 7.9-20.31 9.61q-14.49 3.28-28.85 7.08a14.77 14.77 0 0 0-6 3.42c-4.3 4.07-7.27 8.14-7.62 15.16-.45 9-4.9 17.78-6.78 26.83a82.86 82.86 0 0 1-23.31 43c-4 3.93-8.38 8.25-10.23 13.26-2.42 6.54-7 9.24-12.55 11.69-14.46 6.33-29.88 5.29-45.06 5.78a6.94 6.94 0 0 1-7.1-5.75c-.46-2.2-1.75-4.23-2.86-6.76-13.84-1.3-25.22-8.26-35-17.32-8.71-8-17-16.62-18.52-29.75-.52-4.4-4-10.2-7.72-12.14a59.93 59.93 0 0 1-22.66-20.15c-3.67-5.41-8.58-7.1-14.7-5.69-9.38 2.16-18.73 4.45-28.07 6.74-10.35 2.53-21.34 6.24-31.16 1.4-10.12-5-18.89-1.81-28.44-.29-5.79.92-12-.6-17.76.38-15.4 2.6-30.7 5.81-46 9.15-3.44.73-6.45 3-9.77 4.64zm244.87 465c-2.48-6.9-4.33-12.17-6.25-17.41-4.67-12.72-9.53-25.37-13.94-38.17a33.81 33.81 0 0 1-1.71-11.65 128.91 128.91 0 0 1 1.87-19.62c1.35-7.41 2.91-14.91 5.63-21.88 1.72-4.4 2.2-8.06.68-12.39-3.17-9-9-17.46-5.81-27.94.46-1.47-1.11-3.75-2.09-5.45-4.29-7.48-4-15.92-1.77-23.22 2-6.51.7-11.55-2.63-15.8-7.87-10.07-9.82-21.92-10.37-33.74-.67-14.42-8.58-24.32-17-35.35-2.72 6.49-5 11.82-7.3 17.39-11.12.84-7.6 13.11-12.73 17.88l-13.64-5c.27-4-.89-8.46 5.23-9.85 1.22-.27 2.94-5.2 2.21-6-4.5-5.08.49-8 2.46-11 3-4.59 7-8.5 11.13-13.27-6.41-4.84-12.71-9.72-21.54-12.32-25.3-7.46-47-20.18-57.07-46.81a11.89 11.89 0 0 0-6-6c-14.33-6-26-16-38-25.39-9.11-7.11-17-15.71-26.07-22.94-5.39-4.32-10-8.63-11.4-15.63-1-5.11-4.21-7.53-9.51-8.75a78.52 78.52 0 0 1-19.62-7.07c-7.73-4.17-13.52-10.46-14.86-19.92-1.1-7.76-2.73-15.45-4.27-24 4.06-3.42 4.89-8.5.87-15.05 5.59-3.83 10.41-7.9 15.88-10.73 15.4-8 32.17-12 49-15.73a93.66 93.66 0 0 1 20.74-2.32c8 .07 16.07.16 23.28-3.52 10.47-5.35 20.14-3.61 30 1.35a13.71 13.71 0 0 0 7.59 1c5.81-.81 11.57-2.12 17.3-3.44 1.65-.38 3.13-1.49 5.67-2.76-12.53-8.35-23.9-16-35.42-23.52a63.58 63.58 0 0 0-10.46-5.34c-14.34-5.89-29.12-3.82-43 .32-19 5.65-38 11.5-55.92 20.33-8.47 4.16-18.34 6.3-27.79 7.34a30.15 30.15 0 0 0-16.04 6.28c-6.34 4.88-12.9 8.77-21.8 7.88-5-.5-9.74 1.9-12.82 7.55-2.67 4.9-4.37 9.33-3.65 14.82.3 2.27.87 5.25-.23 6.81-3.44 4.84-.9 8.8.89 13 1.18 2.75 2.74 5.34 3.79 8.14 3.37 9.07 4.22 19.36 12.93 25.81.9.67 1.19 2.3 1.53 3.55 1.63 5.85 5.52 9.65 10.68 12.55 7 3.91 13.77 8 20.59 12.18a14.69 14.69 0 0 1 4.5 3.71c3.42 4.88 6.7 9.86 9.71 15s5.27 10.68 8.45 15.67c3 4.73 2.6 10.25 4.28 15.29a31.65 31.65 0 0 0 16.28 19.14c5 2.59 10.1 4.87 15.13 7.36s7.51 7 6.63 12.87c-.43 2.91-1.37 5.76-2.25 9.32 15.29 5.74 34.4 3.17 45.86 20.67-1.83 3.57-4.08 8-6.14 12 4.17 4.36 9.39 8 12.07 13 4.09 7.68 7.49 15.27 16.79 17.78 1.05.28 2 1.81 2.56 2.95 2.77 5.34 7.11 6.77 13 7.29 4.54.41 10.69 2.49 12.85 5.91 5.31 8.38 8.95 17.77 5.23 28.39a35.55 35.55 0 0 0-1.94 13.71 206.1 206.1 0 0 0 3.41 23.51 7.86 7.86 0 0 0 3.37 4.63c16 9.89 23.68 26.64 33.46 41.44a35.56 35.56 0 0 1 5.56 20.57c-.69 10.38 2.12 18.5 9.75 24.61 8.75 7 13.3 15.25 11.85 26.53-.38 3 0 6.11-.88 8.88-1 3-3 5.72-4.64 8.56-.8-.18.38 1.93 2 2.35 17.35 4.57 34.76 8.86 53.87 13.65zM55.57 413.49c1.39 1.29 2.06 1.64 2.3 2.19 3.32 7.47-2 12.9-4.62 18.94-1.28 3-3.65 5.69-4.09 8.73C47 458.62 51.55 472 61.34 483.82c2.63 3.17 5.48 4.82 9.43 4.08 6.32-1.18 11.62.51 16.77 4.32 3.41 2.52 7.63 3.94 11.95 6.09l8.73-5.32-20.14-23.74c-2.59 1.54-2.61 7.62-8.15 6.32-.53-.49-1.2-.83-1.45-1.37-3.73-8.12-2-15.57 3.2-22.34 4.77-6.18 6.72-12.52 4.22-20.38-4.21-13.21-7.85-26.61-11.57-40a14.81 14.81 0 0 1-.14-5.9c1.44-9.83 3-19.64 4.83-31 7.72-3.15 16.09-7 24.75-9.93 4.64-1.58 9.79-1.58 14.69-2.46 4.21-.77 7.52-2.28 7.05-7.74a7.45 7.45 0 0 1 2.28-5.66 55 55 0 0 1 11.56-7.26c4.91-2.2 9.19-4.46 12.7-9 5.76-7.46 12-14.86 21.5-18.27l7.58 9.5c16.94-16.66 38.81-18.08 60.09-20.72-.41-3.2-2.75-5.76 1.38-7.19 2.23-.77 3.93-2.37 2.45-5.45-.43-.89.39-3.28 1.31-3.78q13.37-7.32 27-14.13c1.37-.68 3.28-.39 4.94-.37 4.33 0 8.66.07 13 .32 5.81.32 10.86-.39 15.58-4.77s10.23-7.27 17.24-6.2c9.1 1.39 18.36 1.84 27.38 3.58 4.15.8 7.38.95 9.49-2.79 4.36-7.7 11.8-8.91 19.48-10.2a41.66 41.66 0 0 0 12.22-3.67c4.64-2.41 9-2.77 14.21-2.69 7.53.12 15.11-1.73 22.65-2.9 15.6-2.43 27.28-10.16 34.68-24.54 3.25-6.32 10.23-8.25 16.53-10.92q3.15 7.32 5.44 12.63c9.18 1.45 17.64 2.75 26.09 4.12 3.25.52 6.52 1 9.7 1.81 16 4.15 29.11 1.22 38.74-13.55 5.52-8.5 14.72-9.89 24-8.07 10.19 2 19.18-2.9 30.95-2.41-2.78-3.23-3.76-5-5.23-6-7.86-5.54-15.89-10.82-23.73-16.37-4.08-2.89-8.1-2.64-12.22-.52a22.4 22.4 0 0 1-17.4 1.43c-5.48-1.62-10.93-1.21-16.61.49-8.2 2.46-16.78 3.64-25.11 5.7-11.54 2.85-23.35 3.84-34.85 7.77-13.65 4.68-28.19 8-43.09 4.68-2.16-.47-4.81-.66-6.75.17a124.08 124.08 0 0 0-16.94 8.39c-10.47 6.49-21.77 9.52-34 10.09-9 .43-17.6 2.16-25.65 7-7.68 4.58-15.95 8.36-25.51 6.39a10.56 10.56 0 0 0-4.86.53c-9.16 2.73-18.27 5.58-26.95 8.25-2.26 18.39-9.73 27.18-20.64 24.74-.23-4.61-.45-9.31-.66-13.62-5.39.52-10 .71-14.58 1.48-5.74 1-12.13-.39-16.89 4.43-9.71 9.83-22 13-35.28 14-6.56.49-13.06 2.07-19.51 3.5-4.91 1.08-7 4.45-5.6 9.57h-7.36c1.21 7.53-.15 11.4-6.2 12.4-11.66 1.93-18.91 9.46-24.71 18.41-3.08 4.76-5.86 5.32-11.13 5.26-7.32-.08-15.75-1.49-21.83 4-11.29 10.14-22.39 20.58-32.72 31.77-4.14 4.51-7.79 7.66-14.46 6.42-5.19 8.93-10 17.61-15.22 26-2.25 3.57-5.56 6.46-8.23 9.79a17.84 17.84 0 0 0-3.41 5.5c-3.94 13 1.6 24.44 5.26 36.71zm226.77 324c1 .76 1.66 1.7 2.54 1.92 8.85 2.24 11.78 8.73 12.77 17 .47 3.89.84 8.23 2.81 11.39 4.06 6.48 7.07 12.76 2.84 21.61 8.93.36 16.19 4.12 24.76 1.31-2.1-11.53-4.22-22.59-6.1-33.68-1.28-7.53-2.44-15.09-3.28-22.68-1.33-11.87-3.12-23.74.25-35.64 1-3.47 1-7.24 1.36-10.87.14-1.32.58-2.8.18-4A58 58 0 0 1 316.9 664c0-7.26-4.46-14.45-6.43-21.82a57.44 57.44 0 0 1-2.42-15.48c.09-5.6 1.89-11.15 2.59-16.76.52-4.22 1.32-8.68.5-12.73-1.5-7.4-4.61-14.47-3.33-22.33.18-1.07-.77-2.55-1.57-3.53-6.67-8.15-8-18-9.16-28-.27-2.2-.72-4.38-1.36-8.26l-11.92 13.4-8.18-3.64c1.74-9.66 7.22-15.71 15.44-19.89 2.44-1.23 5.68-3.53 6.05-5.76 1.48-8.8 2.81-17.83-3.6-25.74-3.34-4.13-6.24-8.62-9.23-13-2.41-3.54-5.5-6-9.92-5.36-6.54 1-13.07 2.27-19.49 3.89-2 .51-3.65 2.51-5.46 3.83a31.51 31.51 0 0 1 .84 14.45c-2 11.72-5.08 23.38 1.71 34.71.89 1.48.67 3.72.72 5.61.1 4.62-.52 9.33.18 13.84 1.94 12.45 4.34 24.84 6.67 37.22 1.7 9 1.75 17.51-3.88 25.58a18.54 18.54 0 0 0-3.24 11.23 122.73 122.73 0 0 0 4.27 23.35c3.29 11.41 7.67 22.5 11.21 33.85 1.35 4.32 2.91 9.18 2.2 13.43-1.67 9.89 2.6 18 5.47 26.9l15.62-9.37 3.87 5.73zm748.71-507c4.64 3.13 9.72 4.74 11.18 8 2.13 4.73 6.2 6.44 9.11 9.7 3.61 4 7.1 4.3 11.49 3.08 4.1-1.13 10.19-1.14 11.87-3.83 7.34-11.84 20.4-19.11 25.41-32.71 1.1-3 3.79-5.4 5.68-8.11 1.52-2.16 3.57-4.2 4.3-6.61 3.36-11.11 7.05-22.2 9.19-33.56a34.06 34.06 0 0 1 9.3-18.06 94.21 94.21 0 0 1 7.26-6.72c3.42-2.91 5.71-6.2 4-11 11-4.62 21.2-9.42 33-9.3 2.34 0 5.14-1.64 7-3.34 11-10.19 24.19-14.8 38.77-16.52 9-1.06 17.92-2.64 28.39-4.21-4.51-6.57-8.24-11.61-11.53-16.93-2.24-3.62-5.16-4.55-9.19-4.46-8.28.18-16.57.59-24.57-2.85-1.83-.79-5.28.37-7.13 1.77-6.84 5.16-13.28 10.84-20 16.2-1.77 1.42-3.8 3.07-5.91 3.43-6.82 1.17-13.72 1.82-20.6 2.62-2.87.34-5.88.11-8.61.88-7.32 2.06-14.5 4.63-21.79 6.8-6.17 1.84-11 6-10.14 11.75.93 6.49-2.47 9.12-6.74 11.86-9.75 6.25-17.9 13.65-19.36 26.05a23.69 23.69 0 0 1-1 5.81c-2.46 6.3-4.19 13.2-8 18.62-10.06 14.38-21.81 27.58-28.74 44-.83 2-2.55 3.58-4.22 5.85-1.2-2.58-2-4.37-3.3-7.14zM820.63 955.75l-12.62.84V958c5.61 0 11.23-.18 16.84 0 6.16.26 9.81-3.85 13.43-7.61s8.13-6.37 12.7-9.07c9.13-5.39 17.66-11.82 26.25-18.07 1.42-1 1.71-3.51 2.87-5.06 1.55-2.07 3.07-4.9 5.23-5.67 11.14-4 20.77-11.33 33-13 15.11-2 30-5.55 45-8.41 21.87-4.17 43.7-8.57 65.62-12.43a175.94 175.94 0 0 1 68.43.92c13.54 2.92 27.42 4.45 41.21 6 17.84 1.94 34.71 6.74 49.67 16.67 6 4 11 9.51 16 14.72 6 6.16 11.5 12.72 16.22 18 17.78-3.67 33.85-7.76 50.17-10.13 16.13-2.34 32.37-6 51.13-3.39-9.72 7.41-18.76 9.52-28.28 10.67-22.07 2.68-44.1 5.6-65.93 8.39 4.65 8.67 9.8 17.09 13.8 26 7.77 17.3 15.62 35 16.48 54.06.73 16.18-1.44 32.5-2.51 48.75-1.55 23.61-11.17 45.11-18 67.32-2.94 9.52-6.39 18.9-10.12 28.15-5.06 12.54-13.74 22.79-22.46 32.85-12.42 14.34-25 28.6-38.08 42.32-6.6 6.91-14.27 12.91-21.93 18.69-8.23 6.22-17.14 11.52-25.51 17.56a107.2 107.2 0 0 1-51.49 20c-20.17 2.31-40.29 5.12-60.41 7.92a141.16 141.16 0 0 0-18.59 3.69c-18.72 5.24-37.6 4.24-56.53 2-41.52-4.93-78.77-21.14-113.94-43-21.86-13.58-37-33-50-54.69-13.16-22-16.6-45.2-12.7-70.2 1.63-10.47 1.29-21.24 2.19-31.84.83-9.69 4-18.67 7.7-27.71a199.94 199.94 0 0 0 10.33-34.3c1.94-9 5.86-16.88 10.34-24.67 4.29-7.49 8.38-15.1 12.88-22.47 6.57-10.79 13.4-21.41 20.17-32.08 1.21-1.9 2.65-3.65 5.09-7-7.73.69-13.77 1.59-19.82 1.71-21 .42-42.08-.4-62.58 5.06-23.45 6.24-46.8 12.88-70.11 19.65-16.59 4.82-33.14 9.88-49.53 15.34-10.67 3.55-21 8-33.18 12.7 8.83 7.71 17.56 13.75 24.19 21.56s11 17.31 16.32 26c14.87-2.27 29.43-4.37 43.19-10.18l.75 2.25-19.11 7.24-20.19 7.66c15.83 27.06 14.64 56.23 14.11 85.18-.3 16.29-.76 32.68-2.79 48.82-1.48 11.75-5.61 23.18-8.67 34.72-1.33 5-3 9.94-4.83 16.21 27.47-4.9 52.87-14.2 80.33-12.58-6.68 2.22-13.38 4.42-20.06 6.66-19.53 6.56-39.07 13.08-59.38 16.92-3.52.67-5.42 2.69-6.82 6.3-3.88 9.9-8.49 19.44-15.65 27.63-3.23 3.7-5.43 8.37-7.67 12.82-8.25 16.35-21.38 27.62-36.67 37.15-20.34 12.67-40.09 26.28-60.35 39.09-23.71 15-50.07 21.18-77.83 21.88s-55.14-2.45-82.32-7.56c-5.09-1-9.83-3.61-14.84-5.15-12.7-3.9-25.51-7.47-38.19-11.44-13.09-4.09-23.67-12.27-32.47-22.4-13.27-15.26-22-33.2-28-52.43-3.65-11.74-8-23.39-10.17-35.43-3.79-21-4.14-42.2 1.15-63.22 2.26-9 4.22-17.84 8.19-26.51 4.47-9.77 6.68-20.78 8.56-31.48 3.31-18.9 10.06-35.43 26.44-46.84 2.09-1.45 3.35-4.08 5-6.15 7.92-9.82 15.94-19.56 23.69-29.52 1.73-2.22 6.5-3.46 3.51-7.9 4.29-2.92 8.21-6.92 12.95-8.5a150 150 0 0 0 17.65-7.44c5.08-2.44 10.37-4.5 15.2-7.36 5.58-3.29 10.57-7.58 16.14-10.89 13.14-7.81 26.47-15.28 39.71-22.92 2.29-1.32 4.9-2.41 6.67-4.26 11.06-11.54 25.58-15.55 40.46-17.59 16.48-2.26 33.18-3.09 49.8-4.15 15.77-1 31.14 2.09 46.45 5.38 11.34 2.44 20.82 8.77 30.09 15.22 3.41 2.37 5.89 3 9.9 1.66 26.45-9 53.14-17.39 79.52-26.62a472.59 472.59 0 0 1 131.46-25.94c8.42-.43 17.28-1.47 26.15 3.52zm1.49 40.45c-4.77 8.6-9.56 16.87-14 25.32-6.5 12.36-14.15 24.37-18.75 37.43-5.91 16.77-9.35 34.42-13.72 51.73-5.67 22.4-3.1 44.93-.78 67.43 1 9.41 3.71 18.52 9.33 26.06 10.74 14.38 21.6 28.78 35.64 40.28a45.61 45.61 0 0 0 5.81 3.89 276 276 0 0 0 98.92 35.7c13.71 2.14 27.94 4.24 41.57 2.84 27.75-2.87 55.28-8 82.86-12.44 17.41-2.81 34.79-5.93 50.06-15.69a16.4 16.4 0 0 1 2.72-1.26c25.45-10.21 45.81-26.53 60.82-49.65 3.36-5.18 8-9.62 12.58-13.92 11.67-11.05 23-22.34 28.51-38 3.9-11 6.42-22.68 11.82-32.85 11.89-22.39 13-47.4 18.55-71.21 4.66-20.15.43-41.22-4.15-61.22-5.46-23.82-19.91-43.24-35.45-61.7-6.45-7.67-14-13-25.8-13.58-1.29 5-3.39 10.29-3.89 15.7-1.6 17.41-8.55 31.91-21.58 43.59a97.82 97.82 0 0 0-11.93 12.07c-6.61 8.49-6.08 13.8-.64 19.66 2.26 2.43 4 5.35 6.3 7.75 13.25 13.85 23 30.11 31.7 47 2.68 5.16 5.86 8.06 11.63 9.5 7.9 2 16.35 3.61 22.06 11.27l-26.29 2.83c.81 16.21-2.86 31.15-9.49 45.59-10.3 22.42-24.75 41.13-46.92 52.66-27.45 14.28-55.56 27.24-85 37-21.8 7.21-44.17 9.64-66.94 4.83-14.31-3-28.7-5.75-42.89-9.26-30-7.43-55.86-20.25-68.9-51.19-5.15-12.22-7.6-23.92-4.3-36.76 1-4 1.61-8.1 2.44-12.38-6.31.5-11.55 1.29-16.78 1.22s-7-4.17-3.84-8a16 16 0 0 1 6.41-4.44 50 50 0 0 1 12.48-3.4c5.61-.58 7.68-3.64 9.4-8.57 2.28-6.54 4.59-13.57 8.85-18.81 9.56-11.77 13.16-24.75 12.46-39.59-.36-7.59-3.94-11.77-10.93-13.4-11.28-2.64-20.82-8.41-29.88-15.42-5.73-4.49-12.26-7.81-20.07-8.61zM560 1107c2.29 10.27 5.29 18.94 6 27.78 1.42 18.22 1.31 36.56 2.38 54.83 1.53 26.11-10.25 47.44-25.81 66.25-12.61 15.25-28 28.14-44.43 39.78-16.82 11.95-32.78 25-52.39 32.39-15.52 5.83-30.54 13.71-46.53 17.4-23.4 5.41-40.53.28-53.3-22.29-7.36-13-15-25.88-21.93-39.14-2.85-5.5-4.31-11.8-5.84-17.87-2.67-10.53-4.18-21-10.06-30.91-8.12-13.61-19.69-20.17-34.37-22.94-7.69-1.46-15.4-2.75-23.62-4.21 1.3 7-3.95 10-9.88 12.62-.65 8.37-1.94 16.65-1.76 24.89s1.78 16.47 2.82 24.69c3.77 29.75 15.78 56 34 79.54 5.18 6.71 11.38 12.5 19.38 15.25 27 9.3 53.67 19.58 82.18 23.83 22.6 3.36 45.17 1.27 67.75 1.09a4.74 4.74 0 0 0 1-.2c22.5-4.33 43.5-12.39 62.5-25.29 13.23-9 25.83-19 39.57-27 23.26-13.68 35.54-36.28 49.52-57.65.22-.34-.22-1.11-.47-2.22-2.18.45-4.46.75-6.64 1.39-8.61 2.54-17.11 5.5-25.81 7.64-3.34.83-7.16.16-10.68-.38-1.33-.2-3.41-2-3.4-3 0-1.69 1-4.1 2.4-4.87a39.3 39.3 0 0 1 9.3-3.38c11.89-3.14 23.89-5.89 35.69-9.34 2.77-.81 6.23-3.35 7.1-5.88 5-14.74 10.14-29.54 13.78-44.66 2.78-11.58 3.69-23.65 5-35.54 2.46-22.63 1.26-45.27-1.47-67.77-1.27-10.51-4.6-20.6-11.89-29.42-17.62 7.37-34.82 14.26-50.09 24.59zm551.4-34.5c-2.35-7.27-3.83-12.67-5.84-17.87-4.31-11.18-13.42-18.87-20.63-28a216.51 216.51 0 0 1-15.09-22.19c-5.37-8.87-5.06-18.49-1.62-28 6.14-16.85 15.94-30.67 32.92-38.25 2.43-1.09 4.84-2.25 7.18-3.51 15-8.12 15.42-24.76 1.25-34.22-16.46-11-34.88-13.41-53.61-11.41-48 5.11-94.86 16.39-141.05 30-13.18 3.9-25.2 11.8-37.63 18.11-8.66 4.39-14.63 11.14-17 22.15 3.61 1 7.25 2.54 11 2.8 7 .5 14 0 21 .35 7.29.33 14.58 1 21.83 1.76 1.73.2 3.46 1.48 5 2.6 3 2.28 5.6 5.33 8.88 7.09 12 6.45 20.89 15.58 24.26 29a69.93 69.93 0 0 1-4.83 48.54c-3.87 8.06-8.13 15.94-11.88 24.06-1.16 2.51-1.2 5.53-2 9.4 17.9-2.07 34.78-3.34 51.4-6.09 25.4-4.21 51-4.47 76.59-5.75 15.8-.73 31.73-.39 49.83-.58zm-849.6 85c6.13 2.52 11.22 4.93 16.52 6.71 10.4 3.51 21.12 6.12 31.33 10.07 24.39 9.45 42.08 26 51.36 50.87 4.49 12.06 6.7 25.1 14.83 35.61a50.8 50.8 0 0 0 7.93 8.32c7 5.75 14.69 3.06 21.83.48a244.19 244.19 0 0 0 54.85-28.22c14.52-9.92 29.51-19.32 40-34.11 4.18-5.9 7.17-12 7.09-19.23-.07-7-.87-13.91-1-20.87-.18-8-3-14.82-7.78-21.29-8.93 1.36-15.66 9.23-25.77 8.22-.22-1.75-1.15-4.12-.5-4.69 6.05-5.32 12.36-10.33 18.61-15.44-8.22-10.66-11.46-12.69-24.16-14.43-14.8-2-29.59-4.11-44.43-5.75a12 12 0 0 0-7.92 2.46c-7.33 5.74-14.26 12-21.36 18-3 2.57-5.88 5.54-9.31 7.44-1.93 1.08-5.68 1.32-7.13.13s-2.42-5.18-1.57-7a51.89 51.89 0 0 1 8.46-13.25c5-5.52 10.93-10.26 17-15.79-21.87-10.78-35-28.63-44.95-49.67-2.43.24-4.9 0-7 .76-19 6.82-35.39 18.48-49 32.78-10.54 11.1-18 25.24-26.23 38.38-5.5 8.7-10.45 17.8-11.74 29.55zm667.33-57.69c-2.29 11-1.11 19.87.57 28.67.46 2.41 1.8 5.39 3.71 6.66 13.64 9.09 27.9 17 44.91 17.36 34.82.79 68.6-3.14 101.22-17.12 18.69-8 29-20 30.67-40 .28-3.31 1-6.59 1.21-9.9.13-2.14-.34-4.32-.64-7.5-61.39 4.55-121.58 11.74-181.69 21.87zm205.56-18.95c-3.33 25.09-7 37.68-15.08 52.48a43.7 43.7 0 0 1-16.53 16.89c-39.11 23.12-81.45 31.93-126.5 27.91-9.88-.88-20.09-1.82-28.79-7.3s-17-11.53-25.4-17.47a11.06 11.06 0 0 1-2.88-3.9c-1.69-3.12-2.92-6.51-4.83-9.47-4-6.27-7.14-12.79-7.1-20.45v-17c-9.17 2.07-17.48 3.83-25.72 5.94a5.57 5.57 0 0 0-3.21 3.41c-3.77 13.09-8.77 26-6.39 40.07 2.47 14.57 11.25 25.94 23.87 31.35 13.79 5.91 28.48 10.91 44.07 11.76 6.88.38 13.73 2.44 20.48 4.17 28.46 7.29 56.12 4.77 82.93-6.85 19.21-8.33 38.12-17.35 57.31-25.73 24.35-10.65 40.34-29 49.2-53.56 3.71-10.29 3.58-21.23 1.82-32.24zm-884.22 105.38c10.29 3.82 19.53 7.74 30.09 8.72 8.43.78 16.76 4.09 24.79 7.16 10 3.79 17.92 10.48 21.92 20.6 3.41 8.63 7.25 17.43 8.51 26.49 3.52 25.17 19.59 44.07 31 65.3 1.35 2.51 4.11 4.33 6.4 6.25 7.51 6.27 15.78 8.24 25.05 4.11 4.85-2.16 9.85-4 14.63-6.34 20.3-9.81 42-16.47 60.64-30 20.75-15.07 37.18-34 52.26-54.28 2.92-3.94 4.77-8.18 9.83-10.61 3-1.45 5.48-6 6.3-9.64a86.29 86.29 0 0 0 1.95-19.71c-.14-14.28-.88-28.56-1.42-42.84-.35-9.52-1.26-19-4.4-29.22l-17.87 11.27c8.14 12.75 9.74 26.55 10.13 40.66a72.22 72.22 0 0 0 1.25 9.9 39.74 39.74 0 0 1-8.83 32.77c-17.33 20.9-38.07 38.1-61.27 52.18-10.22 6.2-21 11.4-31.57 17.13-13.29 7.23-27.64 9.29-42.5 8.59-7.17-.33-14.37-2.43-19.11-7.56a118.54 118.54 0 0 1-17.46-23.84c-4.49-8.4-7.24-17.86-9.9-27.1-6.85-23.82-22.82-38.29-45.65-46.14-13.48-4.63-26.94-9.29-40.44-13.87-.46-.16-1.18.43-2.47 1-.57 2.66-1.2 5.78-1.86 9.02zm303.58-167.67a96.5 96.5 0 0 0-41.93-14.39c-16.39-1.84-32.56.94-48.83 1.45-12.64.39-24.36 3.23-35 10-5 3.14-9.7 6.7-14.59 10-6.17 4.15-6.8 8.47-1.57 13.9 2.76 2.87 6.25 5 8.94 8 8 8.63 18 12.07 29.41 12.83a60.34 60.34 0 0 1 12.8 1.92c4.9 1.44 9 .26 13.34-1.76 9-4.19 18.25-7.94 27.32-12a60.29 60.29 0 0 0 8.53-4.83c6.6-4.4 12.91-9.27 19.69-13.37s13.84-7.51 21.89-11.75zm354.37 70.51c5.57-12.69 10.48-24 15.46-35.18 6.41-14.41 11.11-29.23 10.59-45.23-.4-12.48-4.27-17.93-16.34-20.23a222.63 222.63 0 0 0-32.6-3.55c-15.37-.61-30.56-.88-41.47-15.35l-9.56 11.07c7.89 5.33 15.54 9.46 21.91 15.06a44.88 44.88 0 0 0 23.05 10.8c10.73 1.79 21.49 11.43 23.48 21.53 1.62 8.22 2 16.57-1.3 24.58-3.71 8.86-7.63 17.63-11.38 26.47-1.73 4.08-3.28 8.23-5.64 14.19zm-302.9-15.64c-2.86-5-6.12-9.72-8.3-14.85-5.6-13.17-15.94-21.92-27.07-29.92-1.79-1.28-5.32-2-7.08-1.13-8.89 4.52-20.17 5.46-25.2 16.16-.59 1.26-2.54 2-4 2.74-10.28 5.33-20.64 10.52-30.89 15.92-3.92 2.06-8.79 2.69-11.62 6.54 11.57 3.42 22.52 7.34 33.79 9.79 11.92 2.59 20.11 11 29.08 16.79zm533.37-167.07c-.37 6.37.21 12.22-1.19 17.55-3.29 12.59-9.84 23-22.23 29-12 5.85-21.16 14.72-26.38 27.36-4.09 9.88-3.93 18.68 4.89 26.12 2.52 2.13 4.56 4.83 6.85 7.25 13.16 13.87 24.82 28.66 29.58 47.75a27.64 27.64 0 0 0 2.21 4.7h15.84c-.93-8.57-6.71-13.38-11-19.2-8.77-12-18-23.9-25.37-36.75-4.85-8.4-4.37-18.38-.69-27.83 4.15-10.66 12.27-18.06 20.43-25.37 10.23-9.17 15.79-20.33 16.11-34.11.11-4.59.48-9.17.76-14.19zm-605.54 203.18c-4.17-8.7-10.14-14.73-20.46-16.44-12.73-2.11-25.29-5.29-37.9-8.09-12-2.64-18-.46-26.78 9.77 12.2 2.07 24.56 4 36.82 6.31 13.35 2.56 20 14.61 29.91 22.24 7.46-3.09 15.54-4.73 18.41-13.79zM370.52 1049l24.86 26.07c7.12 7.47 16.92 10.23 25.81 14.56a6.31 6.31 0 0 0 4.8.22c5.47-2.58 10.75-5.55 17.84-9.3-3.43-1.16-4.58-1.81-5.78-1.91-13.76-1.12-24-8.67-33.34-18-6.91-6.91-13.85-13.79-21.13-21zm778.71 22.5c-9.23-4.2-9.58-4.22-16-.87 5.42 2.18 10.3 1.73 16 .88zM885.37 964.79v.7h15.33v-.7zm-11 .76v-.61h-5.61v.61zM2895.93 300.4l-11.22 1.82c-5 14.16-10.5 29.74-16.14 45.25a36.86 36.86 0 0 1-4.81 9.74c-6.18 8.15-14.19 14.89-18.3 24.63a7.21 7.21 0 0 1-3.67 3.23c-7.89 3.42-15.8 6.82-23.88 9.74a7.65 7.65 0 0 1-6.46-1.15c-8.22-7.26-17.95-5.33-27.48-5.32-3.53 7.52-6.74 15.09-10.58 22.32a79.74 79.74 0 0 1-8.93 13.18c-7 8.53-22.12 8.25-28.21-.84a26.6 26.6 0 0 0-11.81-9.92c-8.89-3.9-11.12-12.84-14.81-20.26-1.5-3 1.21-8.13 2.25-13.59-4.72-2.57-9.46-7.26-14.2-7.26a39.38 39.38 0 0 0-24.86 8.64c-1.54 1.24-2.54 3.24-4.19 4.22-7.08 4.2-7.77 10.14-5.33 17.23a22.82 22.82 0 0 1 1.12 5.8c.86 12.15 6.8 20.54 18.08 25.28 3 1.27 5.71 3.35 8.69 4.75a10.2 10.2 0 0 0 5.35 1.2c8.34-1.25 13.57 1.52 19 8.69 7.25 9.62 3.32 19 3.23 29.07 14.93 7.68 30.21 15.13 47.41 16.85 5.26.52 9.87 1.68 13.62 5.21 3.42 3.22 7.07 4 11.7 3.68 6.51-.38 11.67 2.05 14.66 8.78 2.79 6.28 6.63 12.13 10.24 18 5.7 9.3 11.32 18.67 17.49 27.65a58.72 58.72 0 0 1 9 19.69c1.15 4.76 2.6 10.13 5.73 13.59 9.66 10.67 7.83 22.6 5.27 34.74-.81 3.84-3 7.37-4.07 11.18-1.57 5.66-3.27 11.4-3.87 17.21-1.54 15.14-3.92 29.87-9.34 44.35a113.22 113.22 0 0 1-15.87 29.46c-6.61 8.64-12.78 17.66-22.63 23.49-8.09 4.78-15 11-15.09 21.91 0 2.36-1.94 4.82-3.31 7-3.68 6-7.62 11.78-4.87 19-4.87 3.62-9.06 6.85-13.38 9.92a24.48 24.48 0 0 1-16.58 5c-10.23-.56-20.33 1.19-29.3 7.82-4.56 3.37-10.82 4.75-16.52 6.17-7.39 1.83-15 2.57-22.49 4.2-15.32 3.35-33.07-4.94-42-18.68-1.76-2.72-3.87-5.78-6.59-7.23-11-5.9-22.2-11.68-33.73-16.54-4.35-1.84-9.82-1-14.75-1.54-9.22-1-18.41-2.3-27.61-3.38a12.08 12.08 0 0 0-10.66 3.83c-6.08 6-12.63 11.65-19.25 17.12-1.51 1.25-4.44 2.21-6.1 1.61-6.72-2.45-13.7-4.83-19.57-8.75-3.07-2-4.38-7.11-5.83-11.06-1.25-3.39-1.11-7.29-2.38-10.66-4.47-11.87-11.36-20.3-25.3-22.78-15.3-2.72-30.29-7.52-45.15-12.24-5.53-1.76-10.42-5.71-15.4-9-6.22-4.07-11.29-10.39-20.39-7.39-2.17.71-5.56-1.76-8.2-3.14-7.66-4-15.32-8-22.79-12.4a99.51 99.51 0 0 1-10.47-7.52c-7.61-5.9-14.65-12.75-22.89-17.57-7.2-4.21-10.32-11.19-14.55-17.24-1.94-2.78-.36-8.37.34-12.57 3.18-19.18 15.91-32.19 29.53-44.46a29.17 29.17 0 0 1 10.2-6c12.38-4 21.32-12.38 28.46-22.52 8.83-12.54 20.47-21 34.91-24.82 11.48-3 23-.47 34 4.21 7 3 14.1 6.32 21.48 7.59 13.77 2.36 24 10 34.56 18.35 7.34 5.78 13.17 13 20.4 18.55a164.53 164.53 0 0 0 27.71 17.38 26.92 26.92 0 0 0 23.49.68c-.76-3.53.34-6.29 4.47-7a98.36 98.36 0 0 1 11.65-1.75c6.2-.34 11.7-2 16.41-6.25a26 26 0 0 1 7.35-5.07c10.93-4.42 18.42-13 25.87-21.43 3-3.44 4.44-8.33 5.78-13.35-4.6 3.86-10.13 3-14.58 4.54-12.87 4.48-20.76-.16-27-10.48a107.63 107.63 0 0 1-5.6-11.41c-.4-.86-.11-2-.31-3-2.45-11.72-4.71-13.24-16.39-15.36-9-1.63-18.4-1.93-26.32-7.81-2.08-1.55-5.7-1-9.15-1.54l-6.42-9.81 9.19-10.17c-6.24-2.37-12.13-4-17.46-6.79-6.36-3.3-12.38-2.26-19-1.27-6.42.95-13.5 1.27-19.63-.46a68.2 68.2 0 0 1-29.79-17.29 92.7 92.7 0 0 1-22.83-35.71c-2.27-6.48-4.06-12.18-2.85-19.06.32-1.81-3.15-4.29-5-6.57 6.5-12.74 6.17-18.08-3.53-28.91-8.73-9.74-13-21.48-16.51-33.62a12.51 12.51 0 0 1 .66-7.5c2.91-7.26 5.7-14.24.43-21.73-.9-1.29-.48-3.94.06-5.74 3.92-13 8.54-25.47 16.36-36.9 6.37-9.31 9.42-20.29 10.55-31.82.66-6.82 2.89-13.57 5.14-20.1 1.85-5.37 2.06-10.48-.07-15.56-4-9.57-.65-17.2 5.33-24.68 4.1-5.14 7.21-11.05 11.1-16.37 4.87-6.64 9.71-12.93 18.38-15.84 11.18-3.76 22.07-8.61 31.7-15.74.6-.45 1.4-.87 1.66-1.49 3.21-7.45 7.44-10.74 14.5-10.61 10.68.2 20.87 2.41 31.24 5.37a114 114 0 0 1 23.41 9.42c16.71 9 35.13 8.92 53.34 9.07 8.22.07 16.46-2.15 24.69-2.08 14.52.11 29.62-1.11 43.42 2.39 19.75 5 40 9.15 58.58 18.51 17 8.54 29.27 21.09 38.1 37.68 2.75 5.15 7 9.47 10.46 14.26 5.79 8.06 11.47 16.2 17.52 24.76 5.08.72 11 1.28 16.84 2.47 7.26 1.49 13.83 4.05 17.41 11.61a11.35 11.35 0 0 0 6.73 5.28c8.94 2.28 15.33 7.45 20.19 15.08 3.22 4.9 6.88 9.6 11.81 16.65zM2525.2 766.52c2.48-2 5.69-3.95 8-6.66 4.47-5.29 9.71-5.89 16.15-4.87 9.8 1.54 19.75 2.12 29.61 3.31 6.18.75 10-2.24 12.93-7.19 1.07-1.81 2-4.24 3.67-5.09 8.55-4.4 17.17-8.75 26.07-12.38 5.56-2.27 11.65-3.24 19.06-5.21-1.85 5-3 7.93-4 10.66l7.48 4.42-34.88 20.93c8-1.75 13.91-.81 18.65 4.38 1 1.1 3 1.39 4.56 1.88 11.75 3.66 21.57 9.84 28.56 20.35 1.67 2.51 5.25 5.54 7.76 5.38 9.91-.62 20.11-1.24 29.53-4.09s18.18-8.06 26.91-12.84c3.1-1.7 5.49-2.4 9.1-1.87 9.37 1.38 12.21-.44 16.52-9.21 1.59-3.23 2.06-7.11 4-10.06 8-12.19 14.64-25.54 28.17-33a23.36 23.36 0 0 0 4.48-3.93c18.08-17.53 25.94-39.92 27.54-64.1.75-11.23 2.1-21.51 7.1-31.57 3.86-7.77 4.43-15.6-1.63-23.3-3.19-4-4.73-9.41-6.91-14.23-2.28-5.07-4.24-10.29-6.69-15.26-1.76-3.56-4.18-6.78-6.17-10.22-6-10.32-11.82-20.68-17.83-31-.62-1.06-2-2.32-3-2.34s-1.92 1.51-3.59 3c-.6-10.8-7.18-14.89-16.14-16.52-2.28-.42-4.48-1.27-6.75-1.72-5-1-9.52-2.26-15.27-1.08s-13.56.91-18.95-4.55a8.36 8.36 0 0 0-4-2.43c-8.9-1.64-15.05-7.15-21.19-13.92l5.93-5-12.15-10.48c-14.81.19-25.94-6.4-26.62-17.43-.31-5-2.47-7.31-5.95-9.22-3.26-1.79-7.17-2.48-10.27-4.47-7.08-4.53-8.42-12.48-10.1-19.78-2.14-9.32-3.41-18.84-4.84-28.31a18.87 18.87 0 0 1 .44-6.51c1.63-7.84 5.07-14.91 8.66-22.07 5.6-11.17 14.18-18.95 24.68-24.9 3.39-1.92 7.8-2.1 11.05-4.17 7.65-4.9 15.76-5.93 24.67-6 8.41-.1 13.72 3.88 18.6 9.49 5.07 5.85 10.1 11.74 14.78 17.9 1.75 2.31 3.46 5.41 3.46 8.15 0 8.77 6.32 13.1 11.41 19.1 5-4.62 5.93-10.3 7-15.74 1.37-6.94 4.88-13.45 10.72-15.94 13.32-5.69 27.59-7.54 41.67-2.1 3.83 1.48 7 4.62 11.4 7.6 5.64-6.41 11.08-12.56 16.46-18.75 2.6-3 6-5.67 7.47-9.15 5.52-13 10.4-26.27 16.16-41.09-9.28 2.46-13.7-1.94-17.3-8.85-1.18-2.25-5.51-3.25-8.6-4s-6.64-.31-9.94-.69c-10.58-1.19-18.78-6.18-23.83-15.72-6.2-11.7-15.17-19.66-28.53-22.26-2.86-.56-5.6-2.1-8.2-3.54-7-3.82-13.83-7.8-20.7-11.77a27.46 27.46 0 0 0-15.11-3.7c-10.77.3-21.27 2.62-32.18 2.67-18.86.08-37.73 2.66-56.56 4.51-2.69.26-5.44 1.93-7.77 3.52-7.36 5-14.17 11-21.88 15.4-15.5 8.83-32.13 14.05-50.33 13.26-2.61-.11-6.27 1.11-7.81 3-5.22 6.48-10.17 13.33-7 22.67a12.23 12.23 0 0 1 0 6.68c-4.51 16.94-8.63 34-14 50.66-4.13 12.68-7.87 25.51-7.75 38.66a77.09 77.09 0 0 1-4.31 27.23c-2.92 8.16-3.61 15.42 2.86 22.88 8.57-.23 14.18 3.8 16.54 13.16 1.4 5.51 6 8.81 11.75 11.15a61.66 61.66 0 0 1 16.59 10.51c2.31 2 3.22 6.46 3.32 9.85 0 1.7-3.38 3.32-4.81 5.28-1.77 2.44-3.1 5.2-5.07 8.58 4.89.88 9.76-.24 10.49 5.52.11.84 2.09 1.46 3.23 2.14a59.75 59.75 0 0 0 26.47 7.93c9.08.61 18.5-1 26.2 5.79.66.58 1.79.64 1.36.5 5.75 6.55 3 13.72 3.86 20.59 2.42-.36 4.26-.18 5.6-.91 10.08-5.51 19.86-4.67 30.29-.41 6.17 2.53 13.22 3.54 19.95 3.88 5.87.29 10.77.57 14.78 5.82 3.47 4.53 10 6.57 9.74 14-.2 5.53 3.43 8.28 8.78 9 1.95.25 3.87 1.29 5.77 1.19 7.38-.41 10.6 4.41 12.93 10.12 2.19 5.36 6.2 10.26 3.16 16.93-1.44 3.15-2.36 7.53-1.33 10.63 2.21 6.67.51 12.53-1.87 18.35s-6.1 10.93-8 16.77c-2.61 8.22-5.38 15.8-11.73 22.28-3.47 3.55-5.79 5-10.76 4.38-6.81-.89-14.07-1.58-20.65-.12-7.87 1.74-14.94 1.86-22.34-1.28a14.38 14.38 0 0 0-7.8-.45c-13 2.38-26.24 4.24-38.12 10.94-2.74 1.54-6.56 2.75-9.47 2.13-10-2.11-20.58-3.08-28.42-10.63-5.16-5-10.92-6.92-18-6.62a59.83 59.83 0 0 1-26.33-4.37c-5.16-2.2-9.91-5.36-15.07-7.56a63.61 63.61 0 0 1-21.69-15.39c-4.06-4.34-8-8.75-11-12-8.74-1.17-16-2-23.2-3.14-7.86-1.23-7.33-.83-11.61 5.5-5.14 7.61-7.71 16-10.45 24.53-.79 2.45-2.31 4.68-3.56 7-2.68 4.91-5.86 9.6-8 14.73-3.64 8.78-6.8 17.79-9.76 26.82a8 8 0 0 0 1 6.29c5.92 8 13.56 13.88 23.46 15.82s19.73 2.76 29.49 4.69a103.51 103.51 0 0 1 19.08 5.64c4.49 1.84 9.57 4.26 12.3 8 6.57 8.8 11.91 18.6 18.36 29.03zm-43-320.68c.23-2.36.83-3.83.41-4.91-2.62-6.82-2.18-13.49-.41-20.48a192.5 192.5 0 0 0 4.22-23.36c1.52-12.17.91-24.86 4.16-36.5 3.54-12.65 7.84-24.93 9.6-38.12 1.21-9 5.29-17.62 7.47-26.56 1.24-5.09 1.27-10.48 1.81-15.73.21-1.95-.12-4.07.55-5.83 5.87-15.3 12.85-30 24.89-41.61 4.25-4.12 8.7-6.33 15-6.28 24.05.18 46-6.86 64.3-22.61 7-6 14.29-7.64 22.79-8 12.29-.49 24.62-.94 36.83-2.34 11.86-1.37 23.6-3.31 35.63-1.94 2.93.33 6-.91 9.05-1.43v-2.12c-9.43-3.47-17.83-9.9-28.43-10s-21.17.14-31.71.83c-16.46 1.07-32.89 2.59-49.38.74-12-1.35-23.74-3.22-33.88-10.55a12.39 12.39 0 0 0-6.41-2.55c-11.87-.28-22.74-4.29-33.67-8.28-1.69-.62-4.28-.7-5.68.18-5 3.15-9.57 7-14.48 10.26-3.48 2.34-7.21 5.92-10.89 6-7 .15-12.64 3.41-18.86 5.26a13.43 13.43 0 0 0-6.23 4.39c-3 3.87-5.1 8.51-8.23 12.26-4 4.78-4.93 9.54-3.32 15.57a36.62 36.62 0 0 1 1.24 14.46c-1.55 10.17-3.94 20.22-6.4 30.22-2.38 9.61-3.56 19.51-8.44 28.51-6 11.13-11.28 22.7-17.07 34.51 5.62 3.46 6.94 8.83 5 14.67-4.3 13.09.62 24 7.55 34.47 4.76 7.14 10.62 13.59 15 20.95 3.65 6.16 5.86 13.18 8.72 19.84-4.93 13.66-5.65 25.24 9.31 36.08zm-84.82 214.52c8.86-2 9-8.35 9.33-13.51.49-7.38 1.37-14.07 6.16-20.3a90.49 90.49 0 0 0 12.07-20.3c2.1-5.08 4.49-8.54 9.67-10.19 1.95-.62 3.71-1.87 7.6-3.9-7.91-2.75-13.84-4.61-19.62-6.88-3.55-1.39-6.26-.67-9.17 1.56-9.17 7-18.49 13.88-27.73 20.81-1 .77-1.94 1.7-3 2.46-6.09 4.39-12.22 8.72-18.25 13.18-.65.48-1.34 1.94-1.07 2.47 2.09 4.18-1.27 5-3.7 6.64-9.63 6.62-18.37 14.06-23.12 26.59l19.27 10.92c3-2.66 6.23-5 8.89-7.93 6.72-7.29 14.91-9.6 24.68-9.63 5.81-.02 7.92 1.84 8.03 8.01zm206.33-20.48l1.1 2c1 .11 2.11.61 2.82.24 8.13-4.25 16.91-5.49 25.9-6.43 7.56-.79 15-2.63 22.52-3.88 3.64-.61 6.12-2.06 5.94-6.51h-8.85c3.7-4.06 5.8-7.8 9-9.6 8.41-4.72 18-5.67 29.16-7.82l-5.69 7.92 10.5.47c-.79 1.73-1.34 2.83-1.8 4s-.79 2.21-1.16 3.26c7.41 3.5 9.08 3.18 10.74-2.76a67.74 67.74 0 0 0 1.94-12.72c.81-10.25.33-10.77-9.93-13.37s-16.48-10-17.17-20.43c-.21-3.18-.52-6.34-1-11.85-3.21 3.08-5.25 4.48-6.49 6.39a22.35 22.35 0 0 0-2.42 6.5c-6.13 23.26-21.22 38.89-41.88 50.1-7.94 4.33-15.46 9.61-23.19 14.49zM2388.8 694c3.21-8 5.9-14.69 8.6-21.39l-2.23-1.33c-2.2 2.82-3.91 6.36-6.73 8.3-3.35 2.32-8.27 2.48-9.73 7.77zM1730.21 438.4a67.16 67.16 0 0 0-7-2.31c-4.85-1.06-9.82-1.62-14.63-2.81a45.72 45.72 0 0 0-17.32-.7 80.59 80.59 0 0 1-28.34-1.36 98 98 0 0 0-38.42-1.93c-7.8 1.18-15.9.56-23.86.41-4.73-.09-8.91.12-13.17 3.09-5.14 3.57-11.31 5.63-16.72 8.86-4.91 2.92-9.4 6.53-13.29 9.28 4.44 11.26 9.06 20.76 11.9 30.77 3 10.47 7.81 20.57 3.93 32.61-1.75 5.41 2.13 12.71 3.71 19.09 2 8.06 4.69 16 6.28 24.12a45.19 45.19 0 0 1-2 24.52c-2.22 6.13-3 12.83-4 19.33-2.13 13.11-9.08 23.7-18.26 32.54-6.74 6.48-10.7 12.7-9.22 22.59 1.3 8.63-9.31 25.32-17 27.66a43.83 43.83 0 0 1-17.16 1.77c-4.66-.53-7.66.83-10.71 3.55a3.19 3.19 0 0 0-.62.79c-7.67 13.3-20.9 13.38-33.64 13.4-7.61 0-13.47-5.17-18.18-10.82-4-4.82-6.29-11.8-11.18-15s-12.19-2.46-18.24-4.14q-18.73-5.21-37.23-11.26c-4-1.32-8.41-3.13-11.29-6-6.24-6.28-14.5-7.85-22.06-11-5.21-2.18-8.7-5.06-10.77-10.71-4.68-12.79-10.41-25.19-15.36-37.88-1-2.59-.56-5.77-.71-8.68-.33-6.24.46-12.77-1.17-18.64-1.79-6.43-2.27-12.35-.08-18.51 1.94-5.47 1.45-10.84 1.09-16.58-.58-9.4.58-19 1.94-28.38.63-4.39.9-8.27-.23-12.64a189.22 189.22 0 0 1-4.73-24.39c-.88-7.25-.61-14.39 5.28-20.41 1.78-1.82 1-6.11 1.44-9.28.28-2.3.51-4.61.85-7.76-2.65-2.62-5.88-5.92-9.24-9.09-5.89-5.56-8.34-12.45-5.28-19.87 3.14-7.61 2.95-15.11 3.22-23.06.4-12.29-.49-23.79-6.62-34.67a24.45 24.45 0 0 1-2.57-8.55c-1-7-2.77-12.86-8.51-18.19-5.91-5.49-6.2-13.76-2.63-21.41a61.76 61.76 0 0 1 4.55-7.72c3.75-5.68 5.19-11.62 5.59-18.64.91-15.88 3.74-31.64 5.28-47.5.54-5.5-.34-11.15-.7-16.71-.23-3.64-1.43-7.38-.87-10.86 1.4-8.67.43-17.16-.46-25.72a27.19 27.19 0 0 1 .13-6c1.27-10.49 2.65-21 4-31.44.24-2 1.08-4.3.35-5.87-3.85-8.39 0-14.64 3.73-22.07 4.49-8.92 7.23-18.62 6.24-29.59-2-22.29 7.34-39.68 26.16-52.39 12.5-8.54 25.69-14.87 40.97-16.24 7.92-.7 15.88-1.08 23.82-1.6.33 0 .77-.18 1 0 8.71 6.49 17.31 1.29 26-.08 1.78-.28 3.78.85 5.67 1.35 10.31 2.73 20.61 5.25 31.46 4.2a25.29 25.29 0 0 1 8.92.72c11.7 3.14 23.56 3.86 35.6 3.2 2.57-.14 5.54 0 7.73 1.1 9.67 5 20.27 6.07 30.66 8.16a25 25 0 0 1 9 3.8c4.3 3 8.53 3.48 13.1 1.27 6.67-3.23 11.83-.74 17.3 3.39a273.13 273.13 0 0 0 27.86 19 35.56 35.56 0 0 0 17.1 4.77c16.55-.06 28.87 8.4 40.86 18.07 5.13 4.14 10.74 7.33 16.51 10.58 9.69 5.46 19.8 10.5 28.09 18.58 6.06 5.9 13.78 10.36 21.33 14.37 9.53 5.06 18.22 10.55 23.19 20.63 2.4 4.89 5.82 8.08 12 9.08 9.31 1.51 15.35 7.92 17.34 17.15 1.59 7.37 5.32 13.21 11.45 16.85 15.39 9.12 15.14 24.76 8.56 38.58-3.4 7.13-2.93 13.42.44 18.62 6 9.25 5.93 19.52 7.82 29.52.37 1.95.15 4.12.92 5.87 7.73 17.64 7.31 36.42 6.62 54.91-.38 10.08-3.48 20.26-6.63 30-3.57 11-8.65 21.55-12.89 32.37-1.43 3.67-2.13 7.62-3.47 11.34-1.57 4.32-3 8.85-5.41 12.64a13.35 13.35 0 0 1-7.6 5.48c-13.86 2.91-27.78 5.72-41.83 7.47-6.3.78-12.56-1.26-18.67 3.25-4.97 3.61-11.37 5.27-17.02 7.76zM1519.48 656c.8-13.76 5.08-25.78 13.77-35.87 5.88-6.82 11.45-12.55 12.86-23 1.64-12.06 4.51-24.07 4.58-36.31 0-5.83-1.9-11.74-3.36-17.5-1-3.85-3.1-7.41-4-11.26-1.41-6-4.13-12.61-2.87-18.19 2.35-10.47 1.34-20.26-.84-30.37a19.09 19.09 0 0 1 .29-9.56c1.62-5 2.82-9.4-.45-14.21-.89-1.3-.28-3.69-.22-5.58.08-2.08.41-4.16.47-6.24 0-1.85-.33-3.74-.13-5.57 1-9.31 6.25-15.55 14.22-20.12 10.65-6.12 20.93-12.89 31.7-18.79 3.2-1.75 7.5-2 11.31-2s7.9 1 11.87 1.46c8.61.94 17.09 2 25.51-2 3-1.41 7.28-1 10.71-.28 12 2.66 23.81 6.09 35.81 8.7 4 .87 8.83 1.33 12.51-.07 8.83-3.37 17.17-2.76 25 1.55 5.28 2.9 9.66 2.27 15.06.52 14.85-4.8 29.74-10 45-12.84 14.28-2.63 20.6-11.82 25.56-23.46 3-7 5.87-14 8.74-21a104.75 104.75 0 0 0 4.21-11.09c4.91-17.58-1.76-34.12-4.85-51-1-5.49-2.32-10.91-3.55-16.36-1.45-6.47-2-13.34-4.63-19.31-5.45-12.44-7.36-24.54-2.21-37.6 3.1-7.87 2.6-8.22-3.94-13.39-8.22-6.5-15.54-13.55-18.07-24.3-.91-3.89-3.49-6.55-7.69-6.66-7.64-.21-11.89-5-15.57-10.81-.95-1.53-2.5-3.38-4.06-3.7-4.78-1-6.67-4.29-7.37-8.39-1-6-5.2-9.05-10.16-11.37-2.09-1-4.81-1-6.49-2.38-12.19-10-26.68-7.81-40.74-8.08-2.94 0-6.07.23-8.79-.64-12.5-4-25.38-7.34-37.09-13.06-5.47-2.67-10.36-3.32-15.86-3.68-9.77-.64-18.7-2.44-23.24-13-1-2.38-4.81-4.46-7.65-5-12.4-2.41-24.89-4.31-37.38-6.21-9.13-1.38-17.44-4.71-24.18-11-3.1-2.88-6.18-3.74-9.92-3-5.83 1.21-11.63 2.6-17.41 4.06-11.26 2.84-22.49 5.81-33.75 8.65-5.06 1.28-8.14 4.36-8.75 9.55-.66 5.59-3.46 9.6-7.68 13.31-7 6.15-10.19 14.57-11.65 23.6-.78 4.83-.58 9.86-1.65 14.61-2.21 9.84-5.2 19.51-7.4 29.35-1.06 4.76-1.44 9.46.42 14.62 4.32 11.94 7.21 24.28 3.35 37.13-.54 1.8-.08 3.92 0 5.88.49 10.26 1 20.52 1.52 30.77.54 10-6.32 19.26-3 29.57.14.45-.6 1.15-.82 1.77-3.31 9.26-6.58 18.54-9.91 27.79-2 5.55-4.58 10.93-6 16.61-2.08 8.15 1.11 14 8.42 16.81a12.48 12.48 0 0 0 3.72.69c11.2 12 6.36 28 14.87 39.52.43.59-.06 1.95-.27 2.91-3.3 14.95-5.43 30.24-12.6 44.2 7.94 8.76 13.61 19.52 15.57 30.57 2.11 11.84.58 24.57-.9 36.73-1.37 11.29-2.4 22.41-.83 33.7 1.26 9 2.56 17.94.72 27.25a54 54 0 0 0 1 26.55 88.76 88.76 0 0 0 12.89 26.68c4.53 6.22 5.9 12.46 3.36 19.65a48.69 48.69 0 0 1-1.46 4.76c-3.39 7.2.37 13.22 3.85 18.66 4.07 6.37 14.17 7 20.06 1.75 8.98-7.81 18.75-13.78 30.46-15.68zm-176.92-486.59c-.54 10.55-2.64 19.38-1 27.44 2.54 12.49 1 24.36-.78 36.51-1.65 11.16-3.7 22.36-4 33.59-.2 6.88-1 13.14-4.09 19.19-1.64 3.27-3.34 6.51-4.94 9.81-1.91 3.94-1.35 7.21 1.32 11a41.67 41.67 0 0 1 6.37 14.23c2.14 9.38 2.27 19.29 5 28.43 2.55 8.42 2.45 17.52 8 25.41a18.36 18.36 0 0 1 .51 19.17c-4.33 7.07-1.71 11.16 2.23 16.76 4.33 6.16 8.76 13.73 5.93 21.24-2.42 6.4-1.92 11.41.17 17.41 2.85 8.19 1.17 11.5-6.65 16.36 1.58 4.93 3.16 10 4.81 15 2.55 7.71 4.19 15.28-.18 23.08-1.19 2.11-.7 5.18-.92 7.81-1 12.49.3 25.18-3.41 37.48-.78 2.61-.11 5.66-.11 9.37 10.31-1.21 15.9-14.56 27.53-8.16 5.52 7.16 9.57 14.85 1.93 24.35-7.19 9-16.1 10.74-27.5 7.43 0 5-.57 8.66.14 12.06 1.07 5.17 3.07 10.14 4.6 15.22 2.32 7.65 5.6 14.23 14.89 15.08a10.21 10.21 0 0 1 4.54 2c17.5 12.25 36.24 21.75 58 26.07l-4.14 2.71 7.3 2.14c4.9-6.11 5-11.37.5-17.5a94.06 94.06 0 0 1-10.1-18.18 40.63 40.63 0 0 1-2.24-25.79c.85-3.69.14-7.82-.34-11.69-.57-4.59-1.94-9.07-2.47-13.66-.75-6.55-.8-13.18-1.59-19.73-1.12-9.23-3.14-18.38-3.89-27.63-2.06-25.37-3.45-50.7-1.61-76.27 1-13.88-1.91-28.05-3.14-43.14l-14.59 14.11-5.33-3.27-14.23 9.75c-8.32-1.07-.95-9.28-6.22-11.62 1.1-2.3 1.94-4.79 3.37-6.86a54.32 54.32 0 0 1 6.41-7.63c5.82-5.77 12.22-9.15 20.57-4.75 2.48 1.31 5.49 1.63 8.32 2.42 1.41-12.57 1.4-12.56-6.78-20.52-3.34-3.25-7-6.26-9.8-9.95-2.54-3.36-5.46-7.35-5.81-11.28-1.21-13.48.63-26.79 8.67-38.08 9.33-13.1 13.52-26.85 9.73-42.88-1-4.32-.53-9.21.2-13.69 1-6.19 2.32-12.08.61-18.52a36.09 36.09 0 0 1-.6-14.85c1.74-10.12.75-19.85-1.74-29.63-3.72-14.63-1.75-28.19 7.4-40.61 1.59-2.16 1.82-5.63 1.9-8.52.11-4.29-.55-8.6-.73-12.91-.45-10.4-.53-20.68 6.86-29.36 1.65-1.94 2.16-4.83 3.36-7.2 3.16-6.23 5.86-12.78 9.74-18.52 6-8.89 13.29-16.4 24.78-18.38 18-3.1 35.57-8.12 53.3-12.23 15-3.47 31.1-1.83 45.38 6.72a39.32 39.32 0 0 0 12.15 4.25c10.67 2.19 21.44 3.93 33.67 6.12l-9.37-11c-7.08-1.55-13-4.3-18.51-3.65-5.74.67-8.38-1.8-12-4.87-2.56-2.18-6.18-3.25-9.48-4.37-3.12-1-6.45-1.5-9.67-2.24-6.44-1.5-12.81-3.94-19.31-4.36-22.15-1.42-44-6.9-66.38-5-2 .16-4 0-6.67 0l8.25 9.15c-2.28 4.24-4.06 7.56-6.16 11.45h-25.11c-2.7-7.59 2.54-11.63 6.45-15.64 1.71-1.75 5.62-1.35 8.66-1.94.53-1.55 1.16-3.37 2-5.9-2.52.28-4.47-.08-5.69.71-9.83 6.34-19.73 3.26-29.56.36-6.18-1.82-12.07-2.62-18 .73a32.26 32.26 0 0 1-6.49 2.45c-10.39 3.16-16.11 13.15-25.67 17.54-.69.32-.78 1.8-1.35 2.6-6.34 9-7.33 19.79-6.14 29.64 1.34 11.13-2 20.66-6.58 29.37a53 53 0 0 0-6 25.46c0 5.82 1.56 7.2 6.83 5.33 4.92-1.74 9.79-3.63 15.81-5.87-.55 3.27-.88 5.25-1.37 8.15l9-2.12c2.32 6.64 2.6 6.88-.15 10.06-4.75 5.5-10 10.58-14.8 16-3.52 3.96-7.36 5.31-13.8 1.25zm301-87.6V79.5l-18.38-2.77c5.07 8.17 12.19 4 18.41 5.08zm10.25.2c2.56 5.38 4.61 7.66 10 7.86zM2353 337.86c5.82 14.56 11.64 29 6.09 45-.7 2 .33 4.6.16 6.88-.87 12-1 24.25-3 35.91-3.85 22.43-15 42.27-27.08 61.47-4.43 7-8.83 13.79-15.83 17.45a38.89 38.89 0 0 1 3.22 5.4 26 26 0 0 1 2 7.36c.76 11.71 4.88 24.14-5.53 33.88-4.3 4-3.57 9.11-3.62 13.78-.09 8.45-.87 16.49-5.45 23.87a9.11 9.11 0 0 0-1.29 5.55c1.33 9.66-2.1 17.25-8.9 24-2.47 2.43-4 5.94-5.48 9.18-4.5 10-7.77 20.69-13.49 29.89-3.4 5.47-10.36 8.84-16 12.73-4.07 2.79-8.62 4.86-12.94 7.27a35.5 35.5 0 0 1-29.68 2.75c-2.81-.94-5.58-2-9.73-3.5-1.06 3.25-2.87 6.13-2.74 8.92a33 33 0 0 1-5.56 20.66 27.06 27.06 0 0 0-3.19 7.13c-3.79 12.51-18.07 24-31.2 24.49a12.63 12.63 0 0 1-7.56-2c-8.37-6.31-17.48-12-18.81-24.14-.82-7.52-2.82-14.9-4.3-22.34-.19-1-.14-2.35-.75-2.81-5.53-4.19-10.77-9.16-17-12-3.71-1.67-9 .2-13.55.31-6.84.18-13.92 1.38-20.46 0-9.29-1.92-17.68-1.75-25.81 3.35-3.1 1.95-6.2 4.32-9.62 5.2a31.19 31.19 0 0 1-12.46.63c-5.86-.95-11.5-3.13-17.28-4.61-13.16-3.37-23.88-11.52-35.16-18.42a57 57 0 0 1-14.92-13.05c-4.36-5.57-9.44-8.29-16.08-8.34-9-.08-15.7-4.35-21.62-10.5-.46-.47-1.19-.78-1.46-1.33-7.12-15-18.09-28.08-22.1-44.49-1.23-5-2.78-8.73-8.09-10-7.43-1.82-10.68-8.75-15.38-13.61-2.09-2.16-1.42-7.56-1.06-11.41.94-10.3 1.14-10.28-8.5-14.62-7.7-3.46-13.92-13.79-13.42-22.72a59.72 59.72 0 0 1 1.45-8.86c1.16-5.59 1.35-10.71-1-16.45-3.72-8.95-4.57-18.61-.6-28.06a37.42 37.42 0 0 0-4-3.62c-8.23-5.49-9.81-10.05-6.65-19.71 1.76-5.37 1.11-13.46-.53-19.68-1.27-4.83-1.08-9.92 2.26-14.2a84.12 84.12 0 0 1 6.46-7.62c4-4 6.85-7.95 4.16-14-1.88-4.24 1-7.15 4.17-9.09 6.09-3.78 7.57-8.48 5.25-15.27a18.88 18.88 0 0 1-.56-10.77c3-10.06 6.52-20 10.29-29.75 1.57-4.1 3.41-7.5 1-12.15a12.79 12.79 0 0 1-.44-9.41c2.33-6.16 5.84-11.87 8.65-17.86a43.44 43.44 0 0 0 2.84-8.22c5.05-20.7 10.8-41.12 22.49-59.3 3.51-5.46 7.91-9.81 14-12.38 4.59-1.95 7.12-4.89 7.52-10.49.35-4.73 1.82-10.63 5-13.64 6.63-6.27 8.57-14.12 10.24-22.12 2.69-13 10.87-20.51 22.15-26.35 7.51-3.89 14.1-9.55 21.46-14.67 0-3.46.75-7.25-.13-10.62-3.34-12.77 4.26-19.93 13-26.51 5-3.78 10.28-7.29 15.65-10.58 2.48-1.52 5.48-2.2 8.22-3.3 6.16-2.48 12.58-4.45 18.38-7.59 11.59-6.27 23.93-7.08 34 .38 10.84 8 22.2 7.52 34 7.71 2 0 4-.3 6-.47 12.38-1.11 23.31.58 32.61 10.64 8.11 8.78 18.63 14.1 30.9 17 15.08 3.59 29.84 9.1 44.15 15.19 8.58 3.65 16.79 8.61 22.26 17.33 5.9 9.41 15.32 15.53 24.49 21.55 4.83 3.17 8.84 6.58 11.06 12.34 1.17 3 4.58 5.44 7.43 7.52s6.74 3.1 9.53 5.37 6.09 5.13 6.65 8.2c3 16.28 8.57 32.11 8.86 48.88.21 11.75 3 21.86 13.63 29.36 8.55 6 11.76 14.88 6.3 25.46-3.27 6.34-1.64 12.3 4 16.85a50.73 50.73 0 0 1 15.2 20.65c3.71 9 3.24 14.6-3.34 21.61-1.18 1.19-2.46 2.24-3.83 3.53zm-188.32 367.56c8.17-9.52 12.47-18.11 13.32-29 .88-11.21 5.07-21.6 16.72-26.13 5.47-2.12 12-.29 17.42-3.75.64-.42 2.52.58 3.54 1.32 6.81 5 13.41 4 20.18-.16 3.65-2.22 9.15-3 11.07-6.13a148.17 148.17 0 0 0 12.88-26.73c2.62-7.23 4.15-14.67 10.65-19.77 1.38-1.09 2.89-3.36 2.7-4.89-1.26-10.48 2.25-19.48 7.74-28.05a13.81 13.81 0 0 0 1.46-4.7 112.43 112.43 0 0 1 16.89-40.75c2.08-3.12 3.05-7 4.78-11.12l-7.66-2.19c.27-.83.72-1.49.64-2.08-1.67-11.5 3.47-20.21 10.63-28.6a66.2 66.2 0 0 0 10.36-16.91c3.73-8.77 5.85-18.21 9.46-27 2.44-6 1.14-11.5.87-17.43s1.95-12.18 2.91-18.3c.54-3.49.08-7.27 1.23-10.52 3.3-9.35 2.65-18.31-1.34-27.18-2.12-4.72-4.39-9.37-6.59-14.06 2.2-3.61 4-7.18 6.42-10.36 2.55-3.43 2.47-6.59.59-10.2-3.18-6.12-5.85-12.22-10.91-17.52-5.91-6.18-9.11-15.19-6.2-23.62 2.64-7.65 2.14-13.29-3.22-19.09-9.12-9.86-14.54-21.36-14.6-35.07 0-2 .11-4.45-1-5.79-5.16-6.41-3.55-13.86-3.78-21-.13-4 0-8 0-11.94 0-5.41-2-9-7.2-11.86-7.23-4-13.45-9.12-16.73-17.69-2-5.18-5.81-10.34-12.67-11.71-2.59-.51-4.75-3.28-7.08-5.05-7.25-5.47-15-7.69-23.95-4.45-2.64 1-5.72 2.19-8.26 1.66a65.49 65.49 0 0 0-34.07 1.79c-6.81 2.19-14.61-.65-21.15 3.74-.59.4-1.95-.16-2.88-.48-7.4-2.56-13.6-.74-16.74 3.25-6.61.79-12.4-.27-15 2.13-8.28 7.63-17.25 14.22-26.32 20.76a10.61 10.61 0 0 0-2 2.23c-7.13 9.39-17.42 16.2-22.24 27.51-.71 1.69-3 2.66-4.06 4.26-2.93 4.28-6.58 8.39-8.22 13.16-3.24 9.39-5.17 19.2-13.59 25.85-1.5 1.18-2.17 3.34-3.49 4.81-8.14 9.08-13.06 20.9-22.82 28.43-6.48 5-11.23 11.08-15.86 17.55-3.38 4.73-6.57 9.08-3.72 15.43.84 1.86 0 4.59-.38 6.88-1.72 11.18-3.62 22.33-5.21 33.53a24.23 24.23 0 0 0 .43 7.86c2.65 13.52 7.52 26.53 6.58 40.82-.47 7.25-2 13.64-6 19.38-3 4.35-6.78 8.17-10.47 12.53l4.31 6.73-4.79 10.75 3.4 1.9c0 3.32-.37 6.43.07 9.42 1.15 7.77 2.83 15.46 3.91 23.23a13.61 13.61 0 0 1-1.21 6.81c-4.31 10.11-8.87 20.13-13.6 30.76 6.55 4.65 9.77 11.55 10.62 19.9.29 2.8 2.17 5.43 3.3 8.15 1 2.44 2.64 4.85 2.87 7.38 1.27 13.93 10.24 25.08 13.54 38.27.36 1.45 2.09 2.51 3 3.86 5.42 7.87 12.48 15.13 15.75 23.82 4 10.5 9 19.6 17.18 27.57 1.43-.16 3.07-.4 4.71-.52 12.43-.92 24.58-4.8 37.38-2.24 6 1.21 12.44 0 18.67.19 7.22.21 14.46.44 21.61 1.29a9.47 9.47 0 0 1 6.21 4c2.9 4.93 7.24 7.57 12.11 10 4.64 2.25 7.35 5.7 8.4 11.27 2.2 10.8 5.38 21.49 8.5 33.86zm-188.87-305.61c-.32-.51-.63-1-.94-1.54.82-4 .9-8.36 2.65-11.88 2.34-4.68 2.22-8.66.31-13.32-1.18-2.86-1.15-6.23-1.58-9.38-.36-2.59-.6-5.19-.89-7.79-.39-3.61-1.56-7.35-1-10.82 2-13.12 4.63-26.14 6.89-39.23.43-2.52 1.09-5.47.23-7.67-1.67-4.23.17-7 2.42-10 2.6-3.44 5.85-6.56 7.67-10.36 2.71-5.65 6.92-9.67 11.63-13.38s8.84-7.68 11.49-13.47a70.51 70.51 0 0 1 10.3-15.71 252.29 252.29 0 0 0 29.7-43.35c1.57-2.91 3.61-5.73 4.46-8.86 4.16-15.38 15.72-25.83 24.87-37.88 1.14-1.5 3.2-2.29 4.79-3.47 5.81-4.35 11.78-8.51 17.34-13.16 5-4.15 10.26-9.07 16.65-7.46 9.27 2.32 17.63 1.1 26.32-1.71 2.68-.87 5.89-.12 8.86 0a43.89 43.89 0 0 0 22.39-5.18c-3.6-.81-5.53-1.76-7.35-1.57-12.24 1.29-20.8-5.1-26.32-14.58-5.64-9.68-13.39-11.66-23.22-10.61a23.26 23.26 0 0 1-3 .22c-14.15-.44-28.61 1.09-41.1-8.28-2.25-1.69-7.14-2.69-9.15-1.4-11.08 7.08-24.81 6.76-36 14-9.37 6.1-10.36 5.92-7.32 16.84 1.43 5.13 1.61 9.28-3.86 12.92a97.18 97.18 0 0 0-17.24 14.84c-4.65 5-9.48 9-15.94 11.49-5.7 2.18-9.84 5.95-11.3 12.73a40.73 40.73 0 0 1-6.8 15.24 33.75 33.75 0 0 0-6 12.22c-3.11 12.15-9.6 22.75-19.45 30.33-8 6.16-13.78 13.22-16.75 22.72-3.26 10.39-8.23 20.32-7.84 31.71.1 2.8-1.24 5.93-2.72 8.44-2.3 3.94-5.29 7.49-7.85 11 5.11 14.55 5.29 19.33.52 28.95-6.77 13.66-10.64 27.68-6.07 42.91.55 1.84 1.6 3.55 2 5.41s1.23 4.68.37 5.48c-5 4.65-6.74 13.85-14.4 12-5.45 6.69-9.63 12.62-14.64 17.71-3.79 3.85-6.18 7.26-1.4 13.34-4.74 1.64-8.36 2.83-11.91 4.19-.67.26-1.05 1.24-2.05 2.5l7.92 1.95a40.57 40.57 0 0 0 12 21.28c5 4.77 9.16 10.43 4.5 18.52-1.33 2.3-.29 8.21 1.74 9.78 7.91 6.11 6.8 13.58 5 21.53-.78 3.45-1.58 6.9-2.55 11.08 21.77 4.1 26.48 19 23.74 37.83 3.53 2.11 6.88 3.31 9.12 5.6 4.31 4.41 8.92 8.94 11.79 14.29 7.49 14 14.11 28.43 21.21 42.95 21.33-3 33.27 11.51 47.72 24.11-.51-2.66-.41-3.73-.88-4.38-4.82-6.71-9.86-13.25-14.55-20a53.57 53.57 0 0 1-5.69-10.4c-7.52-18.7-7.7-39.73-18.18-57.52a3.35 3.35 0 0 1-.18-1 33.66 33.66 0 0 0-8.53-17.52 8.75 8.75 0 0 1-2.41-6.1c.61-5.42 2.36-10.7 3-16.11 1-7.83 2.09-15.75 1.9-23.61-.13-5.17 1.56-9.16 5.66-10.54 7.58-2.53 7-8.54 6.51-13.82-.35-3.61-3-7.28-5.35-10.34-7.88-10.2-8.15-27.37 1.27-36 2.58-2.18 5.02-4.45 7.47-6.71z"/><path d="M1763.81 1159.39l-10.08.74v-1.52l10 .76zM1739.26 1156.94h5.34v.68h-5.34zM2365.89 1268.27l-7.94-2.38.42-1.66 8 2.19zM408.79 565.64l19.14 9.67c.12 14.94-10.68 21.19-20.08 28.28-5.36 4-11.28 6.78-18.48 5.28-6.64-1.39-9-4.26-8.37-11.15.84-9.45 7.43-15.33 13.63-21.24 4-3.81 8.8-6.79 14.16-10.84zM476.34 685.86c3.32 9.39 2.73 11.32-4.59 17-3.93 3-7.57 6.47-11.29 9.79-8.1 7.22-17.4 8-28.85 5.92 2.35-5.85 4.23-10.57 6.59-16.46l-7.2 2.37c11.79-13.64 24-25.97 45.34-18.62zM577.76 310.41c2 2.33 3.63 4.37 5.39 6.32 3.87 4.27 4.08 8.64 1.12 13.61-4.12 6.9-7.6 14.19-11.88 21s-12 8.27-19 9.47c-5.43.93-9.09-9.55-4-13.82 7.52-6.33 8.06-14.25 9-22.6.55-5.08 3.85-8.2 8.24-10.11 3.28-1.47 6.82-2.41 11.13-3.87zM628.1 242.85c3.72 7.29 3.26 13.2-2.1 17.93-7.18 6.32-14.71 12.22-22.16 18.22a22.24 22.24 0 0 1-4.32 2.43c-4.34 2.09-8.64 3.66-12.71-.65-3.31-3.52-5-10-1.88-13.81 7.17-8.71 13.28-19 26.85-19.63 5.29-.21 10.48-2.8 16.32-4.49zM188.57 370.44c1.68 1.44 2.76 2.87 4.18 3.47 3.95 1.65 3.23 4.39 2.11 7.34-.11.28-.43.48-.66.71-10.31 11-22.15 20.23-34.77 28.38a11.31 11.31 0 0 1-8.39.91c-8.13-2.47-8.57-6.17-3.23-12.77 10.74-13.28 24.75-21.55 40.76-28.04zM450.94 363.66c-.79 2.9-1.62 5.92-2.55 9.32l5.68 2.09c-.24 1-.18 1.89-.57 2.19-8.2 6.49-18.3 7.4-28 8.15-6.54.5-9.21-1.93-6.75-12.94 9.54-5.47 17.58-16.61 32.19-8.81zM478.82 294.05c-7.44-1.49-8.36-5.63-6.61-10.7 3.21-9.3 9.25-16.79 16.19-23.53a10.91 10.91 0 0 1 6.14-3 10.31 10.31 0 0 1 6.86 1.93c.78.63.08 4.43-1.09 5.88-7.62 9.43-11.76 21.49-21.49 29.42zM300 360.07c5.1-5.94 9.24-10.9 13.55-15.7 2.21-2.45 4.71-4.64 7.12-6.91 5.89-5.57 5.9-5.56 15-4.12-1.08 6.94-5.74 11.69-10 16.65-1.93 2.24-4.49 4.08-6 6.57-4.53 7.63-10.6 7.76-19.67 3.51zM354.73 457.85c2.2-9.56 13-5.89 17.59-12.43 3.05 3.94 4.86 6.77 1.14 10.6-5.33 5.47-9.92 6.12-18.73 1.83zM1106.78 641.87l-5.24-7.3c9.62-15 5.76-13.94 38.65-29.56 6.54 8.31 6.83 12.23-.78 18.86-14.13 12.31-12.09 14.64-32.63 18zM1112.65 384.33c0-8.36-.4-15.7.21-23 .22-2.53 2.5-5.29 4.54-7.17 7.25-6.7 11.61-8.45 25.72-11.13-4.67 6.94-14.28 12.42-4.84 21.63-8.49 6.59-14.65 15.68-25.63 19.67zM1098.47 436l5 3.25-7.38 7.94c-2.81-4.24-5 1.1-7.8.48-10.38-2.29-6.56-11.9-10.06-17.59 4.86-4.66 9.14-9.13 13.82-13.14 2.94-2.52 6.44-5.27 10.52-1.93 4.37 3.58 4.86 8.09 1.62 13.08-1.6 2.46-3.44 4.77-5.72 7.91zM1188.46 556.18l5.39 8.76c-4.64 7-9.4 14.4-14.38 21.64-2.2 3.2-4.44 7.07-9.47 4.18-3.76-2.16-5.72-7.68-4.28-12.07a5.54 5.54 0 0 1 .83-1.79c6.35-7.61 11.12-16.9 21.91-20.72zM1068.46 556.24c-2.8-1.71-6.33-2.76-7.91-5.11-1.74-2.61 1-5 2.76-7.52 2.71-3.82 4.68-7.77 9.65-9.09 3.52-.93 6.8-2.51 9.86 1.29.76 1 3.19.55 4.85.8 1.82.27 5 .2 5.17.95a10.41 10.41 0 0 1-.62 6.17c-1.67 4.28-4.44 7.11-9.68 7.06-2.08 0-4.16 1.7-6.28 2.54-2.4.95-4.84 1.81-7.8 2.91zM1158.7 260.88l-23.14 7.83c-.75-9.61 3.54-14.86 9.9-20.5 6.67-5.92 14.94-3.54 22.85-6.47-2 2.9-4.45 5.62-6 8.76-1.67 3.39-2.53 7.17-3.61 10.38zM954.88 282.36c-2.19-13.71 2.46-23.57 6.19-34.1l8.9 7.11c1.72 6.95-1 14.75-5.93 22.92l-4.53-2.64c-.9 1.35-2.08 3-4.63 6.71zM1013.19 377.28c-4-7.71.28-12.47 4-15.73 3.54-3.11 7.73-9 14.42-3.64 1.17.93 4.7-1.08 7-1.68 2.78 3.62 1.45 6.49-1.27 8.07-7.82 4.51-15.88 8.57-24.15 12.98zM890.15 234.82c-1.42 6.22-6.14 7.75-9.8 9.92a77.88 77.88 0 0 1-13.35 5.94c-1.81.65-4.07.1-6.12.1.78-1.86 1-4.62 2.41-5.42 8.13-4.68 16.57-8.77 26.86-10.54zM954.13 482.55c-2.56 10.28-7 18.39-12.46 26.14-3.12 4.44-7.29 6.6-12.22 7.7-4 .89-6.67-.95-6.79-5a25.86 25.86 0 0 1 1.27-9.69c3.21-8.41 7.64-16.16 17.31-18.37 3.96-.95 8.22-.56 12.89-.78zM783 324.29c-1.71-12.48-.51-14.63 9.15-18.62 4.24-1.75 8.39-3.7 12.85-5.67l7.73 5.9c-3.88 5-7.2 10.09-11.33 14.39-5.22 5.46-12.5.64-18.4 4zM802.3 147.66c.82-14.67 6.71-21 20-20.58-3.18 5.63-5.83 11.1-9.25 16-1.67 2.42-4.67 4-7.31 5.62-.74.45-2.33-.7-3.44-1.04zM970.89 579c-.42-7 1.34-8.94 12-13.12.53 9.23-1.24 11.17-12 13.12zM881.61 409.32c-6.64 8.47-6.64 8.47-12.36 6.37 4.38-8.69 4.38-8.69 12.36-6.37zM275.65 647.57c.64-4.7 1.15-8.49 1.73-12.75 2.71-1.59 5.61-4.12 9-5a28.21 28.21 0 0 1 11.47-.46c3.28.5 4.6 3.42 4 6.85-1.6 9.08-8.43 14.27-17.63 13.22-2.6-.33-5.1-1.1-8.57-1.86zM1112.46 134c.4-2 .17-4.66 1.2-5.29 7-4.29 13-11.22 24.72-10.09-9.23 6.1-11.64 19.11-25.92 15.38zM2596.52 473.57c-6.05-6.75-11.56-12.92-17.1-19.05-4.76-5.28-5.52-12.11-5.1-18.38.46-6.95 10.54-11.32 17.86-9.17 4.68 1.37 9.47 2.44 14.27 3.37 10.19 2 13.09 10.5 16.14 18.45 1.84 4.79 2.1 10.19 3.21 16l-6 1.87c.24 1.12.49 2.33.74 3.53-7.14 6.89-15.69 3.32-24.02 3.38zM2785 592.25c5.19 8.81 13.26 14.09 18.38 22.56s2.87 15.17-.11 22c-4.36 9.91-10.34 10.79-19.84 5.43-10.58-6-16-15.31-18.74-26.54-2.35-9.47 2.38-17.68 11.72-20.85 2.71-.96 5.53-1.7 8.59-2.6zM2722.62 255l-11.18 6.12c3.14 3.45 5.89 6.39 8.55 9.4 2.34 2.64 2.83 5.95-.38 7.64-11 5.74-20 15.39-33.45 16.33-4.55.32-8.53 1.29-10.85-4.06-.56-1.3-2.75-1.8-3.89-3-7.76-8-6.9-14.39 3.12-19.39s20.4-9.53 30.72-14c2.32-1 5-3.6 7.62.77.69 1.19 5.12.19 9.74.19zM2751.23 709.92l8.57 13.47c-5.47 4.26-10.9 10-17.52 13.28-9 4.53-19 7.13-29.44 5.37a14.24 14.24 0 0 1-4.59-1.63c-8.33-4.76-8.87-8.82-1.37-14.71 5.26-4.13 8.87-9.55 16.3-12.09 10.15-3.47 19.82-3.84 28.05-3.69zM2605.1 326.2c-2 6.58 2.32 9.21 7.87 12.12-5.57 3.23-11.32 5.75-8.68 13.28.3.87-2.68 3.77-4.56 4.35a45.8 45.8 0 0 1-28.31-.63c-5.41-1.79-11.78-14.39-9-18.09 4-5.27 8.3-11 16.09-11 8.54-.07 17.08-.03 26.59-.03zM2482.78 672.76c2.89 4.33 5.43 8.11 8.15 12.17-2.76 3.85-5.39 8-8.54 11.66a10 10 0 0 1-5.79 3.23c-8 1-15.85 4-24.24.67-3.82-1.53-8.68 1.91-12.81-1.93-3.51-3.26-4.42-5.38-1.45-9.06a13.09 13.09 0 0 1 5.31-4.25c12-4.18 22.78-11.77 35.92-12.63.98-.06 1.97.08 3.45.14zM2755.4 304.71l12.6-15.54 5.26 4.54 5.14-4.09c2.4 2.58 5.35 4.87 7.09 7.86a79.74 79.74 0 0 1 6.52 14.44c2.95 8.69-3.76 19.28-12.45 19.83a9.32 9.32 0 0 1-6.19-1.9c-11.96-10.58-11.89-10.65-17.97-25.14zM2696.29 505l-16.47-10 5.56-5.28c13.45 11.19 13.45 11.19 10.91 15.28zM2512.77 189.56l16.9 4.73c1.11 5 2.3 10.22 3.34 14.87-18.62 15.42-36.06 14-53.59 0-.5-3-1.09-6.5-1.84-10.91 2.85-6.13 10.5-4.27 15.83-7 5.49-2.85 11.23-5.21 17.85-8.24.74 3.15 1.13 4.87 1.51 6.55zM1657.13 321c-3.56-6.54-9.43-9.63-17-11.1-5-1-9.07.7-13.48 1.53-6.47 1.2-12.67 2.84-19.48.65-3.54-1.14-7.91.56-11.85.29s-8.16-.46-11.21-2.37c-8.57-5.38-14.48-13.06-15.42-23.58-.27-3.12-.65-5.53-3.61-7.57-1.92-1.32-3.11-4.16-3.91-6.56-2.21-6.6-4.77-13.22-5.76-20-.79-5.39.63-11.09.88-16.66 1.1-23.71 15.79-36.82 35.72-45.75a9.9 9.9 0 0 1 6.76-.61c7.32 2.74 15.63 2.49 22.17 7.63a14.56 14.56 0 0 0 7.12 3.25 261.56 261.56 0 0 0 26.68 1.3c7.79-.13 14.26 1.29 19.14 8.05 2.65 3.67 7 6.14 9.52 9.86 9.25 13.54 3.08 28.67 3.63 43.1.07 1.9-2.5 3.81-3.52 5.87-.82 1.65-1.86 3.68-1.56 5.31 1.47 8.09 3.3 16.11 5.12 24.13 1.56 6.84 1.21 13.18-4.73 17.91a14 14 0 0 1-6 2.93c-6.22 1.01-12.45 1.58-19.21 2.39zm-38-92.31c2.28 19 4.55 37.87 6.88 57.28 11.68-4.49 21.56 2.66 32.53 7 0-1.95.37-3.12 0-3.77-7.56-11.56-8.19-23.72-5.1-37 1.65-7.05 2.23-14.9-.14-22zm-18.81 56.85c0-20.55.06-40.06 0-59.56 0-4.16-1.69-7.66-5.56-9.49-9.41 2.36-12.74 8.79-13.28 17.65-.92 15.08-5.08 30.51 6.24 43.93 1.32 1.57 1.09 4.41 1.71 6.63.14.52.83.89 1.51 1.57zM1544.48 351.18c-4.27 2.49-7.76 4.87-11.53 6.64-4.59 2.17-7.71-4.79-12.54-2.42-1.29-4-3.85-8.08-3.64-12 .57-10.84 2-21.66 3.68-32.41.8-5.24 5.44-6.78 11-5.1 1.9.57 4.39-1 6.39-.57 5.2 1.11 8.27 4.78 8.16 10.44-.23 11.84-1 23.67-1.52 35.42zM1485.37 343.77l10.63 10.11c1.45 6.49-.26 11.2-8.56 16.2-5.62 3.38-11.79 5.86-17.79 8.58-3.57 1.6-7.32 1.72-10-1.52s-3.19-6.6-.79-10.83c6.04-10.65 16.32-15.84 26.51-22.54zM1502.75 529.25c-.81 1.31-1.61 2.63-2.87 4.7l8.89-1.57c2.55 13.67 2.11 13.08-7.82 20.51-6.94 5.19-13.78 8.75-22.52 8.09-3.84-7.32-3.08-14.92 3.65-20.58 5.9-5 12.91-8.59 19.43-12.81.41.55.83 1.1 1.24 1.66zM1548.16 131.78c-2.84 8.65-10.88 10.78-17.21 15.19-7.69 5.35-14.52 1.46-22-.1.79-1.79 2.57-3.8 2.21-5.29-1.41-5.77 2.34-8.46 5.92-11.3a67.68 67.68 0 0 1 8.14-5.62c8.29-4.73 10.19-4 15.85 4 1.12 1.52 3.93 1.8 7.09 3.12zM1462.65 238.9c.45-8.22.9-14.81 8.57-18.47 2.88-1.37 5-4.34 7.56-6.4s5-5.68 9.12-1.65c.75.73 4-1.11 6.43-1.88.46 1.73.35 4.29 1.46 5 4.27 2.83 2.34 5.77.42 8.41-6.79 9.31-14.45 17-27.62 13.91-1.43-.31-3.13.55-5.94 1.08zM1733.29 352.31c-.19.94-.37 1.88-.69 3.51l7.37-1.45c-.38 1.74-.36 2.76-.81 3.47-2.41 3.83-4.83 7.66-7.49 11.32a24.55 24.55 0 0 1-5.37 5.84 182 182 0 0 1-16.61 10.64c-1.66.93-5.45 1-6.22-.07a8.54 8.54 0 0 1-1-7 21.42 21.42 0 0 1 5.75-8c7.67-6.68 15.68-13 23.56-19.42zM1733.39 292.29c-8.07-9.89-4.75-20.12-1.6-30.19.4-1.27 2.82-2.45 4.45-2.68 3-.43 6.19-.12 9.86-.12-.66 12.7 4.46 26.88-12.71 32.99zM1667.17 149.73c2.75-3.89 4.45-7.58 7.3-9.69 1.19-.88 5.12 1.21 7.34 2.65a31.35 31.35 0 0 1 7.31 6.52c1.47 1.84 3.36 5.38 2.6 6.53a11 11 0 0 1-7.09 4.16c-3.67.48-8.14.62-11.12-1.09s-4.21-5.81-6.34-9.08zM1399.73 64.72c-10.32 14.68-19.34 17-33.83 9.84-1.46-5.68 1-10.41 4.27-14.52s7.42-7.37 13.71-6.11c3 .6 6.28-.48 9.81-.83 7.18 1.2-3.45 10.79 6.04 11.62zM1368.78 253.81l7.31-3.05c-3.79 18.13-3.79 18.13-21.36 20.86 6-5.27-3.76-6.82-1.6-11.25-5.09-4.18-1.14-7.33 1.83-9.26 4.86-3.15 10.39-5.26 17.45-8.69-1.53 4.8-2.41 7.64-3.63 11.39zM2193.11 359.47c4.33.21 8 .6 11.61.52 7.42-.18 13.14 2.61 18.72 7.65 6.24 5.63 7.37 12.09 6.45 19.57-.52 4.26-1.41 8.48-2.23 13.28l5.76.49c.46-.54 1.08-1 1.23-1.5 4.2-16 14.35-24.24 31.67-26.14 2-.22 3.86-2.42 5.8-2.45a14.82 14.82 0 0 1 7.46 2c3 1.82 5.61 4.44 8.82 7.07.81 16.27 1.18 32.72-7.92 47.93-4.11 6.85-5.65 14.73-6.11 24.18 2.94-1.32 5-1.93 6.65-3 5.34-3.53 11-6.16 17.45-6.53 5.68-.32 7.56 2.48 5.63 8-.11.29-.47.49-.63.77-1.92 3.43 2.3 8.77-3.29 11-3.63 1.45-7.35 2.68-11.08 3.87-7.57 2.4-15.1 5-22.8 6.93-3.88 1-6.55 2.65-8.55 6.05-3.67 6.23-7.91 12-15.6 14.87 1.29 2.3 2.3 3.93 3.16 5.64 4.09 8.09 3.46 9.83-2.11 16.88-3.42 4.32-5.78 9.54-8.24 14.55a46.89 46.89 0 0 0-2.67 8.52c-2.2 8.11-6.83 13.12-15.73 14-2.67.25-5.47 2.19-7.67 4-20.67 17.12-27.12 14.17-47.33.41-4.1-2.8-8-5.25-12.43-4.66-13.82 1.84-20.56-7.78-28.21-16.23-7.29-8.07-14.7-16-22-24.13-1.69-1.88-3.65-3.93-4.31-6.23-2.25-7.92-4.1-16-5.85-24-.61-2.82-1.64-6.42-.48-8.6 4-7.42 2.32-13.8-1.34-20.66-2.8-5.24-2.21-10.23 2.49-15 5.89-6 5.25-8.25-1-16.19a6.73 6.73 0 0 1-.87-5.49c6.62-18.22 9.21-37.16 11.38-56.3.91-8.08 3.79-16.1 6.81-23.74 4-10.17 13.1-15.59 22.13-20.75 12.63-7.21 26.34-8.27 40.36-6.46 2 .26 4.55 2.67 5.46 4.7 5.83 12.92 11.27 26 16.82 39.06.84 1.72 1.56 3.57 2.59 6.12zm16.94 72.14c-7 11.44-14.67 20.42-26.23 25.3a14.69 14.69 0 0 0-5.59 4.13 54.49 54.49 0 0 1-25.82 17.96c.42 3.67.78 6.74 1.1 9.59-8.8 3.7-16.27.48-23.91-1.76-4.22-1.24-8.7-4.08-13.31.56 6 15.7 22.58 21.78 31.28 35.32 10.7-1.88 19.48 1.79 27.91 7.9 6.95 5 11.72 4.45 16.08-2.62 5.39-8.75 13.54-13.35 21.89-18 11.25-6.29 14.11-14.21 8.63-26.18 3.43-5.56 6.59-11.84 10.84-17.29 8.27-10.62 9.62-23.2 12.47-37-12.21 3.11-23.16 8.78-35.34 2.09zM2153 336.09c-11.73 3.94-19.55 10.28-23.34 21.28-6.4 18.61-11 37.54-11.12 57.34A16.14 16.14 0 0 0 2120 421c3.63 8.47 5.55 16.91 1.71 25.95-.94 2.2-.47 5-.61 6.93 4.48-.26 8.43-.17 12.27-.79 4.82-.77 10.38-.9 14.19-3.44 17.3-11.58 35.6-22.08 48.34-40-.37-6.25-.78-13.09-1.22-20.44-4.66-.54-8.88-.24-12.41-1.66-3.75-1.52-6.59-5.21-10.29-7-5.42-2.61-7.56-7.28-9.18-12.36-3.34-10.43-6.41-20.92-9.8-32.1zM2159.92 179.73l-8.72 5.64.21 1.63 7.82.6c.08.35.44 1 .3 1.51-1.38 5.24-4.87 8.35-9.9 10.17-10 3.6-19.81 7.55-29.83 11-1.85.64-4.27-.17-6.39-.54-1.78-.31-3.48-1.26-5.25-1.4-5-.39-9-4.88-9.58-11 13.17-9.91 28.56-14.85 43.89-19.92 2.84-.94 5-1.93 8.15.56 1.86 1.49 5.88.27 8.93.27zM2068.43 556.2l-27.26 13.27c-1.19.58-2.36 1.22-3.57 1.73-3.92 1.63-8 2.32-10.61-1.82-2.24-3.54-1.86-7.37 1.06-10.68 5.47-6.21 10.89-12.51 18.71-15.92a83.51 83.51 0 0 1 11-4.38c9-2.46 13.85 2.57 11.68 11.61-.39 1.87-.61 3.79-1.01 6.19zM2069.79 420.89c-3.43 2.55-6.28 4.48-8.92 6.66-4.8 4-9.67 6.08-15.93 2.88-1.68-.86-4.37 0-6.53.41-3.89.74-7 .53-8.89-3.8-1.72-3.85-4.32-6.94-.4-11.31 2.87-3.18 4.44-7.53 6.58-11.36 18.44-2.37 31.3 3.83 34.09 16.52zM2294.57 328.41c-5.24 2.1-10 4.11-14.9 5.93-2.75 1-5.94 1.18-8.34 2.68-3.68 2.29-7 1.74-10.18-.19-4.08-2.44-3.8-6.95-3.33-10.64.54-4.24 2.66-8 7.27-9.94 4.25-1.77 8.06-4.54 12.28-6.39 3.84-1.69 7.92-3.54 12-3.75 2.27-.11 6 2.5 6.8 4.72 1.58 4.17-.43 7.71-6.21 8.31zM2077.18 320.69l2 2.93-25.91 2.47-5.53-12.56c9.08-11.28 22-8.91 33.33-11.28 3.44-.72 7.86 1.93 8.41 6.53a14.46 14.46 0 0 1-1.62 7.87c-.68 1.32-3.2 1.78-5 2.42s-3.74 1.09-5.68 1.62zM2243.14 264.46c0 3.15-.4 4.48.06 5.33 3.81 7 3.33 11.3-3 15.32-4.69 3-9.94 5.13-15 7.41-5.25 2.36-10.21 2.33-14.13-2.92a6.37 6.37 0 0 0 0-1.74c-2.94-10.57 4-15 11.91-18 6.02-2.34 12.51-3.42 20.16-5.4zM2123 617.15c-.42 4.61-.83 9.23-1.31 14.64-3.13.4-6 1.29-8.75 1-3.15-.33-17.41-13-19.52-16.21 1.78-3.47 4-6.34 4.69-9.54.86-4 2.34-6.49 6.42-7.69 4.41-1.3 6.77 1.06 9.16 4 3.54 4.31 7.15 8.56 10.73 12.84zM2250.58 178.32c2.43 4.76 4.52 8.85 6.93 13.55-3.93 4.81-10.39 6.61-16.37 9-4.87 1.93-7.55.12-8.43-5-.27-1.57.23-3.26.12-4.87a49.19 49.19 0 0 0-.95-5.3zM2170.27 603l8.7 3.73c-1.74 4.81-3.32 9.13-5.2 14.3l-5.55-3.44c2.97-4.59-5.72-10.24 2.05-14.59zM2054.09 117l4.91 6.23c.59-.79 1.22-1.29 1.13-1.56-.6-1.89-1.43-3.71-2.05-5.59-4.26-12.94-2.47-16.27 11.46-20 4.49 5.58 8.81 11.88 14.08 17.26 4.46 4.54 2.57 10.32 4.44 15.3 1 2.63-3.6 6.75-7.1 6.49a81.36 81.36 0 0 1-15.6-2.22c-6.87-1.83-8.44-4.37-11.27-15.91zM1910.16 467.11c6-8.25 13.16-11.32 21-8.3 8.22 3.18 14.65 9.95 13.32 20.55-.44 3.47-3.8 7.05-6.72 9.53-1.39 1.19-5.07.45-7.38-.36-10.58-3.68-16.91-10.6-20.22-21.42zM1978.64 199.26c0-7.14-1.49-13.67 4.16-19.26 3.21-3.17 6.37-4.51 10.56-4.17 1 .08 1.91.54 2.88.72 4.63.88 11.13-1.9 11.28 7 .17 10.84-2 15-10.79 17.6-2.13.64-4.2 1.48-6.92 2.45-.53-1.93-.93-3.42-1.41-5.19a58.76 58.76 0 0 1-6.29 2c-.84.13-1.87-.6-3.47-1.15zM1944.11 323.6c-.35 5.1-.58 8.58-.9 13.25L1915 350.49a75.17 75.17 0 0 1-.55-7.88c0-.87 1.56-1.79 1.43-2.52-2.59-14.9 10.56-15.09 18.73-19.32 2.15-1.12 6.39 1.82 9.5 2.83z"/><path d="M2183.89 474.17c9.61-5.89 20.21-7.55 30.16-10.93 3.09 7.58 2.22 12.43-3.15 14.58a69.78 69.78 0 0 1-16.16 4.2c-4.63.64-8.25-1.9-10.85-7.85z"/></svg>